<svg width="126" height="126" viewBox="0 0 126 126" fill="none" xmlns="http://www.w3.org/2000/svg">
<path fill-rule="evenodd" clip-rule="evenodd" d="M89.833 54.6128V34.626H98.7403V76.1205C98.7403 79.7414 98.8851 83.6519 99.0299 86.0416H91.0641L90.702 80.4655H90.5572C88.4571 84.376 84.1845 86.8382 79.0429 86.8382C70.6426 86.8382 63.9803 79.6689 63.9803 68.8064C63.9078 57.0025 71.2943 49.9781 79.7671 49.9781C84.619 49.9781 88.095 52.0058 89.6882 54.6128H89.833ZM89.5433 73.3687C89.7606 72.5721 89.833 71.7031 89.833 70.7617V65.4753C89.833 64.7511 89.7606 63.8821 89.6158 63.1579C88.8192 59.6819 85.9949 56.8577 81.9396 56.8577C76.2187 56.8577 73.0323 61.9269 73.0323 68.5168C73.0323 74.9619 76.2187 79.6689 81.8672 79.6689C85.488 79.6689 88.6743 77.2068 89.5433 73.3687Z" fill="white"/>
<path d="M49.1981 61.0578L64.0435 86.0415H53.7603L48.4739 76.3377C46.3739 72.572 44.9979 69.965 43.622 67.1408H43.4048C42.2461 69.965 40.9426 72.572 38.9874 76.3377L34.1354 86.0415H23.9247L38.408 61.3475L24.504 37.2329H34.7148L40.0012 47.2988C41.5943 50.3401 42.753 52.7299 44.0565 55.4817H44.2014C45.5049 52.4402 46.5187 50.2677 48.0394 47.2988L53.2534 37.2329H63.4641L49.1981 61.0578Z" fill="white"/>
<path fill-rule="evenodd" clip-rule="evenodd" d="M97.6171 2.65102C74.7953 0.100375 51.2046 0.100375 28.3833 2.65102C15.1372 4.13148 4.44374 14.5661 2.88645 27.8811C0.157397 51.2146 0.157397 74.7862 2.88645 98.1195C4.44374 111.434 15.1372 121.87 28.3833 123.349C51.2046 125.901 74.7953 125.901 97.6171 123.349C110.863 121.87 121.556 111.434 123.114 98.1195C125.843 74.7862 125.843 51.2146 123.114 27.8811C121.556 14.5661 110.863 4.13148 97.6171 2.65102ZM29.4802 12.4649C51.5726 9.99572 74.4273 9.99572 96.5197 12.4649C105.277 13.4436 112.291 20.3535 113.306 29.0283C115.946 51.5997 115.946 74.4011 113.306 96.9727C112.291 105.647 105.277 112.557 96.5197 113.536C74.4273 116.005 51.5726 116.005 29.4802 113.536C20.7236 112.557 13.7091 105.647 12.6946 96.9727C10.0546 74.4011 10.0546 51.5997 12.6946 29.0283C13.7091 20.3535 20.7236 13.4436 29.4802 12.4649Z" fill="white"/>
</svg>
