<svg width="118" height="118" viewBox="0 0 118 118" fill="none" xmlns="http://www.w3.org/2000/svg">
<g clip-path="url(#clip0_12_513)">
<path d="M73.202 11.752L78.3711 3.13603C78.959 2.15479 78.6423 0.883721 77.6611 0.295802C76.6777 -0.294188 75.4087 0.0225433 74.8208 1.00586L69.366 10.0979C66.118 8.94277 62.6401 8.28033 59.0008 8.28033C55.3615 8.28033 51.8837 8.94277 48.6356 10.0979L43.1808 1.00586C42.5929 0.0225433 41.3218 -0.292118 40.3406 0.295802C39.3593 0.883721 39.0426 2.15479 39.6305 3.13603L44.7997 11.752C34.8071 16.9169 27.9487 27.3298 27.9487 39.3345C27.9487 40.4793 28.8762 41.4046 30.0189 41.4046H87.9828C89.1255 41.4046 90.0529 40.4793 90.0529 39.3345C90.0508 27.3318 83.1945 16.919 73.202 11.752ZM32.1677 37.2643C33.2276 23.3882 44.8576 12.4227 59.0008 12.4227C73.144 12.4227 84.7741 23.3882 85.834 37.2643H32.1677Z" fill="white"/>
<path d="M73.4442 23.5249H70.7158C69.9623 23.5249 69.3516 24.1356 69.3516 24.8891V27.6176C69.3516 28.3711 69.9623 28.9818 70.7158 28.9818H73.4463C74.1998 28.9818 74.8105 28.3711 74.8105 27.6176V24.8891C74.8105 24.1356 74.1978 23.5249 73.4442 23.5249Z" fill="white"/>
<path d="M47.2842 23.5249H44.5537C43.8001 23.5249 43.1895 24.1356 43.1895 24.8891V27.6176C43.1895 28.3711 43.8001 28.9818 44.5537 28.9818H47.2842C48.0377 28.9818 48.6484 28.3711 48.6484 27.6176V24.8891C48.6484 24.1356 48.0377 23.5249 47.2842 23.5249Z" fill="white"/>
<path d="M87.9808 43.4746H30.0169C28.8742 43.4746 27.9468 44.4 27.9468 45.5447V87.3015C27.9468 92.8143 32.4369 97.2982 37.9538 97.2982H40.3676V109.731C40.3676 114.29 44.0814 118 48.6482 118C53.2149 118 56.9287 114.29 56.9287 109.731V97.2982H61.069V109.731C61.069 114.29 64.7828 118 69.3496 118C73.9163 118 77.6301 114.29 77.6301 109.731V97.2982H80.0439C85.5629 97.2982 90.051 92.8143 90.051 87.3015V45.5447C90.051 44.4 89.1256 43.4746 87.9808 43.4746ZM85.9107 87.3015C85.9107 90.5309 83.2795 93.158 80.0439 93.158H75.56C74.4173 93.158 73.4898 94.0833 73.4898 95.2281V109.731C73.4898 112.009 71.6329 113.859 69.3496 113.859C67.0662 113.859 65.2093 112.007 65.2093 109.731V95.2281C65.2093 94.0833 64.2819 93.158 63.1391 93.158H54.8586C53.7159 93.158 52.7884 94.0833 52.7884 95.2281V109.731C52.7884 112.009 50.9315 113.859 48.6482 113.859C46.3648 113.859 44.5079 112.007 44.5079 109.731V95.2281C44.5079 94.0833 43.5805 93.158 42.4378 93.158H37.9559C34.7203 93.158 32.0871 90.5289 32.0871 87.3015V47.6149H85.9107V87.3015Z" fill="white"/>
<path d="M99.3666 43.4746C95.3712 43.4746 92.1211 46.7289 92.1211 50.7284V79.6938C92.1211 83.6933 95.3712 86.9475 99.3666 86.9475C103.362 86.9475 106.612 83.6933 106.612 79.6938V50.7284C106.612 46.7289 103.362 43.4746 99.3666 43.4746ZM102.472 79.6938C102.472 81.4099 101.079 82.8073 99.3666 82.8073C97.6546 82.8073 96.2614 81.4099 96.2614 79.6938V50.7284C96.2614 49.0122 97.6546 47.6149 99.3666 47.6149C101.079 47.6149 102.472 49.0122 102.472 50.7284V79.6938Z" fill="white"/>
<path d="M18.6312 43.4746C14.6359 43.4746 11.3857 46.7289 11.3857 50.7284V79.6938C11.3857 83.6933 14.6359 86.9475 18.6312 86.9475C22.6266 86.9475 25.8767 83.6933 25.8767 79.6938V50.7284C25.8767 46.7289 22.6266 43.4746 18.6312 43.4746ZM21.7364 79.6938C21.7364 81.4099 20.3432 82.8073 18.6312 82.8073C16.9192 82.8073 15.526 81.4099 15.526 79.6938V50.7284C15.526 49.0122 16.9192 47.6149 18.6312 47.6149C20.3432 47.6149 21.7364 49.0122 21.7364 50.7284V79.6938Z" fill="white"/>
</g>
<defs>
<clipPath id="clip0_12_513">
<rect width="118" height="118" fill="white"/>
</clipPath>
</defs>
</svg>
