<svg width="108" height="111" viewBox="0 0 108 111" fill="none" xmlns="http://www.w3.org/2000/svg">
<path d="M17.9999 0H31.4999C41.441 0 49.4999 8.28272 49.4999 18.4999V32.3749C49.4999 42.5921 41.441 50.8749 31.4999 50.8749H17.9999C8.05887 50.8751 0 42.5923 0 32.3749V18.4999C0 8.28272 8.05887 0 17.9999 0Z" fill="white"/>
<path d="M76.5001 0H90.0001C99.9411 0 108 8.28272 108 18.4999V32.3749C108 42.5921 99.9411 50.8749 90.0001 50.8749H76.5001C66.559 50.8749 58.5001 42.5921 58.5001 32.3749V18.4999C58.4999 8.28272 66.5588 0 76.5001 0Z" fill="white"/>
<path d="M17.9999 60.125H31.4999C41.441 60.125 49.4999 68.4077 49.4999 78.6249V92.4999C49.4999 102.717 41.441 111 31.4999 111H17.9999C8.05887 111 0 102.717 0 92.5001V78.6251C0 68.4077 8.05887 60.125 17.9999 60.125Z" fill="white"/>
<path d="M76.5001 60.125H90.0001C99.9411 60.125 108 68.4077 108 78.6249V92.4999C108 102.717 99.9411 111 90.0001 111H76.5001C66.559 111 58.5001 102.717 58.5001 92.5001V78.6251C58.4999 68.4077 66.5588 60.125 76.5001 60.125Z" fill="white"/>
</svg>
