<svg width="114" height="114" viewBox="0 0 114 114" fill="none" xmlns="http://www.w3.org/2000/svg">
<g clip-path="url(#clip0_12_544)">
<path d="M87.875 14.25H84.8255C83.7755 10.1833 81.4076 6.57914 78.092 4.00092C74.7765 1.42269 70.7 0.0157403 66.5 0L47.5 0C43.3 0.0157403 39.2235 1.42269 35.9079 4.00092C32.5924 6.57914 30.2245 10.1833 29.1745 14.25H26.125C19.1985 14.2575 12.5579 17.0124 7.66017 21.9102C2.76241 26.8079 0.00754381 33.4485 0 40.375L0 87.875C0.00754381 94.8015 2.76241 101.442 7.66017 106.34C12.5579 111.238 19.1985 113.992 26.125 114H87.875C94.8011 113.991 101.441 111.236 106.338 106.338C111.236 101.441 113.991 94.8011 114 87.875V40.375C113.991 33.4489 111.236 26.809 106.338 21.9116C101.441 17.0141 94.8011 14.2588 87.875 14.25ZM26.125 28.5H87.875C91.0244 28.5 94.0449 29.7511 96.2719 31.9781C98.4989 34.2051 99.75 37.2256 99.75 40.375V52.25H14.25V40.375C14.25 37.2256 15.5011 34.2051 17.7281 31.9781C19.9551 29.7511 22.9756 28.5 26.125 28.5ZM87.875 99.75H26.125C22.9756 99.75 19.9551 98.4989 17.7281 96.2719C15.5011 94.0449 14.25 91.0244 14.25 87.875V66.5H47.5C47.5 69.0196 48.5009 71.4359 50.2825 73.2175C52.0641 74.9991 54.4804 76 57 76C59.5196 76 61.9359 74.9991 63.7175 73.2175C65.4991 71.4359 66.5 69.0196 66.5 66.5H99.75V87.875C99.75 91.0244 98.4989 94.0449 96.2719 96.2719C94.0449 98.4989 91.0244 99.75 87.875 99.75Z" fill="white"/>
</g>
<defs>
<clipPath id="clip0_12_544">
<rect width="114" height="114" fill="white"/>
</clipPath>
</defs>
</svg>
