<svg width="114" height="114" viewBox="0 0 114 114" fill="none" xmlns="http://www.w3.org/2000/svg">
<path d="M90.25 19H85.025C83.9225 13.6392 81.0056 8.82239 76.7659 5.36141C72.5262 1.90043 67.223 0.00690899 61.75 0L52.25 0C46.777 0.00690899 41.4738 1.90043 37.2341 5.36141C32.9944 8.82239 30.0775 13.6392 28.975 19H23.75C17.4534 19.0075 11.4169 21.5122 6.96454 25.9645C2.51219 30.4169 0.00754232 36.4534 0 42.75L0 90.25C0.00754232 96.5466 2.51219 102.583 6.96454 107.035C11.4169 111.488 17.4534 113.992 23.75 114H90.25C96.5466 113.992 102.583 111.488 107.035 107.035C111.488 102.583 113.992 96.5466 114 90.25V42.75C113.992 36.4534 111.488 30.4169 107.035 25.9645C102.583 21.5122 96.5466 19.0075 90.25 19V19ZM52.25 9.5H61.75C64.6867 9.51217 67.548 10.4314 69.9423 12.1319C72.3366 13.8324 74.1471 16.2312 75.126 19H38.874C39.8529 16.2312 41.6634 13.8324 44.0577 12.1319C46.452 10.4314 49.3133 9.51217 52.25 9.5V9.5ZM23.75 28.5H90.25C94.0293 28.5 97.6539 30.0013 100.326 32.6737C102.999 35.3461 104.5 38.9707 104.5 42.75V57H9.5V42.75C9.5 38.9707 11.0013 35.3461 13.6737 32.6737C16.3461 30.0013 19.9707 28.5 23.75 28.5V28.5ZM90.25 104.5H23.75C19.9707 104.5 16.3461 102.999 13.6737 100.326C11.0013 97.6539 9.5 94.0293 9.5 90.25V66.5H52.25V71.25C52.25 72.5098 52.7504 73.718 53.6412 74.6088C54.532 75.4996 55.7402 76 57 76C58.2598 76 59.468 75.4996 60.3588 74.6088C61.2496 73.718 61.75 72.5098 61.75 71.25V66.5H104.5V90.25C104.5 94.0293 102.999 97.6539 100.326 100.326C97.6539 102.999 94.0293 104.5 90.25 104.5Z" fill="white"/>
</svg>
