<svg width="140" height="140" viewBox="0 0 140 140" fill="none" xmlns="http://www.w3.org/2000/svg">
<g clip-path="url(#clip0_23_6)">
<path d="M40.8333 81.6667C40.8333 83.2138 40.2188 84.6975 39.1248 85.7915C38.0308 86.8854 36.5471 87.5 35 87.5H29.1667C27.6196 87.5 26.1358 86.8854 25.0419 85.7915C23.9479 84.6975 23.3333 83.2138 23.3333 81.6667C23.3333 80.1196 23.9479 78.6358 25.0419 77.5419C26.1358 76.4479 27.6196 75.8333 29.1667 75.8333H35C36.5471 75.8333 38.0308 76.4479 39.1248 77.5419C40.2188 78.6358 40.8333 80.1196 40.8333 81.6667ZM64.1667 75.8333H58.3333C56.7862 75.8333 55.3025 76.4479 54.2085 77.5419C53.1146 78.6358 52.5 80.1196 52.5 81.6667C52.5 83.2138 53.1146 84.6975 54.2085 85.7915C55.3025 86.8854 56.7862 87.5 58.3333 87.5H64.1667C65.7138 87.5 67.1975 86.8854 68.2915 85.7915C69.3854 84.6975 70 83.2138 70 81.6667C70 80.1196 69.3854 78.6358 68.2915 77.5419C67.1975 76.4479 65.7138 75.8333 64.1667 75.8333ZM35 99.1667H29.1667C27.6196 99.1667 26.1358 99.7812 25.0419 100.875C23.9479 101.969 23.3333 103.453 23.3333 105C23.3333 106.547 23.9479 108.031 25.0419 109.125C26.1358 110.219 27.6196 110.833 29.1667 110.833H35C36.5471 110.833 38.0308 110.219 39.1248 109.125C40.2188 108.031 40.8333 106.547 40.8333 105C40.8333 103.453 40.2188 101.969 39.1248 100.875C38.0308 99.7812 36.5471 99.1667 35 99.1667ZM64.1667 99.1667H58.3333C56.7862 99.1667 55.3025 99.7812 54.2085 100.875C53.1146 101.969 52.5 103.453 52.5 105C52.5 106.547 53.1146 108.031 54.2085 109.125C55.3025 110.219 56.7862 110.833 58.3333 110.833H64.1667C65.7138 110.833 67.1975 110.219 68.2915 109.125C69.3854 108.031 70 106.547 70 105C70 103.453 69.3854 101.969 68.2915 100.875C67.1975 99.7812 65.7138 99.1667 64.1667 99.1667ZM35 29.1667H29.1667C27.6196 29.1667 26.1358 29.7813 25.0419 30.8752C23.9479 31.9692 23.3333 33.4529 23.3333 35C23.3333 36.5471 23.9479 38.0308 25.0419 39.1248C26.1358 40.2188 27.6196 40.8333 29.1667 40.8333H35C36.5471 40.8333 38.0308 40.2188 39.1248 39.1248C40.2188 38.0308 40.8333 36.5471 40.8333 35C40.8333 33.4529 40.2188 31.9692 39.1248 30.8752C38.0308 29.7813 36.5471 29.1667 35 29.1667ZM64.1667 29.1667H58.3333C56.7862 29.1667 55.3025 29.7813 54.2085 30.8752C53.1146 31.9692 52.5 33.4529 52.5 35C52.5 36.5471 53.1146 38.0308 54.2085 39.1248C55.3025 40.2188 56.7862 40.8333 58.3333 40.8333H64.1667C65.7138 40.8333 67.1975 40.2188 68.2915 39.1248C69.3854 38.0308 70 36.5471 70 35C70 33.4529 69.3854 31.9692 68.2915 30.8752C67.1975 29.7813 65.7138 29.1667 64.1667 29.1667ZM35 52.5H29.1667C27.6196 52.5 26.1358 53.1146 25.0419 54.2085C23.9479 55.3025 23.3333 56.7862 23.3333 58.3333C23.3333 59.8804 23.9479 61.3642 25.0419 62.4581C26.1358 63.5521 27.6196 64.1667 29.1667 64.1667H35C36.5471 64.1667 38.0308 63.5521 39.1248 62.4581C40.2188 61.3642 40.8333 59.8804 40.8333 58.3333C40.8333 56.7862 40.2188 55.3025 39.1248 54.2085C38.0308 53.1146 36.5471 52.5 35 52.5ZM64.1667 52.5H58.3333C56.7862 52.5 55.3025 53.1146 54.2085 54.2085C53.1146 55.3025 52.5 56.7862 52.5 58.3333C52.5 59.8804 53.1146 61.3642 54.2085 62.4581C55.3025 63.5521 56.7862 64.1667 58.3333 64.1667H64.1667C65.7138 64.1667 67.1975 63.5521 68.2915 62.4581C69.3854 61.3642 70 59.8804 70 58.3333C70 56.7862 69.3854 55.3025 68.2915 54.2085C67.1975 53.1146 65.7138 52.5 64.1667 52.5ZM140 58.3333V110.833C139.991 118.566 136.915 125.979 131.447 131.447C125.979 136.915 118.566 139.991 110.833 140H29.1667C21.434 139.991 14.0208 136.915 8.55295 131.447C3.08514 125.979 0.0092625 118.566 0 110.833L0 29.1667C0.0092625 21.434 3.08514 14.0208 8.55295 8.55295C14.0208 3.08514 21.434 0.0092625 29.1667 0L64.1667 0C71.8993 0.0092625 79.3126 3.08514 84.7804 8.55295C90.2482 14.0208 93.3241 21.434 93.3333 29.1667H110.833C118.566 29.1759 125.979 32.2518 131.447 37.7196C136.915 43.1874 139.991 50.6007 140 58.3333V58.3333ZM29.1667 128.333H81.6667V29.1667C81.6667 24.5254 79.8229 20.0742 76.541 16.7923C73.2592 13.5104 68.808 11.6667 64.1667 11.6667H29.1667C24.5254 11.6667 20.0742 13.5104 16.7923 16.7923C13.5104 20.0742 11.6667 24.5254 11.6667 29.1667V110.833C11.6667 115.475 13.5104 119.926 16.7923 123.208C20.0742 126.49 24.5254 128.333 29.1667 128.333ZM128.333 58.3333C128.333 53.692 126.49 49.2409 123.208 45.959C119.926 42.6771 115.475 40.8333 110.833 40.8333H93.3333V128.333H110.833C115.475 128.333 119.926 126.49 123.208 123.208C126.49 119.926 128.333 115.475 128.333 110.833V58.3333ZM110.833 75.8333C109.68 75.8333 108.552 76.1755 107.593 76.8164C106.633 77.4574 105.886 78.3684 105.444 79.4343C105.003 80.5002 104.887 81.6731 105.112 82.8047C105.337 83.9363 105.893 84.9757 106.709 85.7915C107.524 86.6073 108.564 87.1628 109.695 87.3879C110.827 87.613 112 87.4975 113.066 87.056C114.132 86.6145 115.043 85.8668 115.684 84.9075C116.325 83.9482 116.667 82.8204 116.667 81.6667C116.667 80.1196 116.052 78.6358 114.958 77.5419C113.864 76.4479 112.38 75.8333 110.833 75.8333ZM110.833 99.1667C109.68 99.1667 108.552 99.5088 107.593 100.15C106.633 100.791 105.886 101.702 105.444 102.768C105.003 103.834 104.887 105.006 105.112 106.138C105.337 107.27 105.893 108.309 106.709 109.125C107.524 109.941 108.564 110.496 109.695 110.721C110.827 110.946 112 110.831 113.066 110.389C114.132 109.948 115.043 109.2 115.684 108.241C116.325 107.282 116.667 106.154 116.667 105C116.667 103.453 116.052 101.969 114.958 100.875C113.864 99.7812 112.38 99.1667 110.833 99.1667ZM110.833 52.5C109.68 52.5 108.552 52.8421 107.593 53.4831C106.633 54.1241 105.886 55.0351 105.444 56.101C105.003 57.1669 104.887 58.3398 105.112 59.4714C105.337 60.6029 105.893 61.6423 106.709 62.4581C107.524 63.2739 108.564 63.8295 109.695 64.0546C110.827 64.2797 112 64.1641 113.066 63.7226C114.132 63.2811 115.043 62.5335 115.684 61.5742C116.325 60.6149 116.667 59.4871 116.667 58.3333C116.667 56.7862 116.052 55.3025 114.958 54.2085C113.864 53.1146 112.38 52.5 110.833 52.5Z" fill="white"/>
</g>
<defs>
<clipPath id="clip0_23_6">
<rect width="140" height="140" fill="white"/>
</clipPath>
</defs>
</svg>
