<svg width="144" height="144" viewBox="0 0 144 144" fill="none" xmlns="http://www.w3.org/2000/svg">
<g clip-path="url(#clip0_10_230)">
<path d="M35.208 93.4978C28.88 87.6526 24.0533 80.369 21.1363 72.2635C18.2193 64.1579 17.2979 55.4689 18.45 46.9318C19.5892 38.2754 22.8104 30.0243 27.8375 22.8857C32.8647 15.7471 39.5478 9.93394 47.3141 5.94444C55.0804 1.95494 63.6982 -0.0919041 72.429 -0.020663C81.1598 0.0505781 89.7431 2.23778 97.4432 6.35348C105.143 10.4692 111.731 16.3906 116.641 23.6103C121.551 30.83 124.637 39.1326 125.635 47.8064C126.632 56.4803 125.512 65.2667 122.37 73.4127C119.227 81.5587 114.157 88.8212 107.592 94.5778C103.365 98.212 100.083 102.818 98.028 108H78V64.8958C81.4974 63.6593 84.5275 61.3724 86.6755 58.348C88.8235 55.3236 89.9846 51.7094 90 47.9998C90 46.4085 89.3679 44.8824 88.2426 43.7572C87.1174 42.632 85.5913 41.9998 84 41.9998C82.4087 41.9998 80.8826 42.632 79.7574 43.7572C78.6321 44.8824 78 46.4085 78 47.9998C78 49.5911 77.3679 51.1172 76.2426 52.2425C75.1174 53.3677 73.5913 53.9998 72 53.9998C70.4087 53.9998 68.8826 53.3677 67.7574 52.2425C66.6321 51.1172 66 49.5911 66 47.9998C66 46.4085 65.3679 44.8824 64.2426 43.7572C63.1174 42.632 61.5913 41.9998 60 41.9998C58.4087 41.9998 56.8826 42.632 55.7574 43.7572C54.6321 44.8824 54 46.4085 54 47.9998C54.0154 51.7094 55.1765 55.3236 57.3245 58.348C59.4725 61.3724 62.5025 63.6593 66 64.8958V108H45.378C43.0842 102.483 39.6133 97.5338 35.208 93.4978ZM48 120V121.86C48.0064 127.73 50.341 133.357 54.4917 137.508C58.6423 141.659 64.2701 143.993 70.14 144H73.86C79.7299 143.993 85.3576 141.659 89.5083 137.508C93.659 133.357 95.9936 127.73 96 121.86V120H48Z" fill="white"/>
</g>
<defs>
<clipPath id="clip0_10_230">
<rect width="144" height="144" fill="white"/>
</clipPath>
</defs>
</svg>
