<svg width="188" height="188" viewBox="0 0 188 188" fill="none" xmlns="http://www.w3.org/2000/svg">
<g clip-path="url(#clip0_84_24)">
<path d="M148.833 31.3333H140.217C138.399 22.4927 133.588 14.5492 126.596 8.84162C119.605 3.13404 110.859 0.0113938 101.833 0L86.1667 0C77.1411 0.0113938 68.3953 3.13404 61.4035 8.84162C54.4117 14.5492 49.6014 22.4927 47.7833 31.3333H39.1667C28.7828 31.3458 18.8279 35.4762 11.4854 42.8187C4.14291 50.1612 0.0124382 60.1162 0 70.5L0 94H188V70.5C187.988 60.1162 183.857 50.1612 176.515 42.8187C169.172 35.4762 159.217 31.3458 148.833 31.3333V31.3333ZM64.108 31.3333C65.7223 26.7672 68.708 22.8114 72.6565 20.007C76.6051 17.2027 81.3236 15.6867 86.1667 15.6667H101.833C106.676 15.6867 111.395 17.2027 115.343 20.007C119.292 22.8114 122.278 26.7672 123.892 31.3333H64.108Z" fill="white"/>
<path d="M101.833 117.5C101.833 119.577 101.008 121.57 99.539 123.039C98.07 124.508 96.0775 125.333 94 125.333C91.9225 125.333 89.93 124.508 88.461 123.039C86.992 121.57 86.1667 119.577 86.1667 117.5V109.667H0V148.833C0.0124382 159.217 4.14291 169.172 11.4854 176.514C18.8279 183.857 28.7828 187.987 39.1667 188H148.833C159.217 187.987 169.172 183.857 176.515 176.514C183.857 169.172 187.988 159.217 188 148.833V109.667H101.833V117.5Z" fill="white"/>
</g>
<defs>
<clipPath id="clip0_84_24">
<rect width="188" height="188" fill="white"/>
</clipPath>
</defs>
</svg>
