<svg width="106" height="106" viewBox="0 0 106 106" fill="none" xmlns="http://www.w3.org/2000/svg">
<path d="M83.9167 17.6667H79.0583C78.0332 12.6821 75.321 8.20328 71.3789 4.98517C67.4367 1.76706 62.5056 0.00642415 57.4167 0L48.5833 0C43.4944 0.00642415 38.5633 1.76706 34.6211 4.98517C30.679 8.20328 27.9668 12.6821 26.9417 17.6667H22.0833C16.2286 17.6737 10.6157 20.0026 6.4758 24.1425C2.3359 28.2824 0.00701304 33.8953 0 39.75L0 83.9167C0.00701304 89.7714 2.3359 95.3843 6.4758 99.5242C10.6157 103.664 16.2286 105.993 22.0833 106H83.9167C89.7714 105.993 95.3843 103.664 99.5242 99.5242C103.664 95.3843 105.993 89.7714 106 83.9167V39.75C105.993 33.8953 103.664 28.2824 99.5242 24.1425C95.3843 20.0026 89.7714 17.6737 83.9167 17.6667ZM48.5833 8.83333H57.4167C60.1473 8.84465 62.8078 9.69937 65.0341 11.2806C67.2604 12.8617 68.9438 15.0922 69.854 17.6667H36.146C37.0562 15.0922 38.7396 12.8617 40.9659 11.2806C43.1922 9.69937 45.8527 8.84465 48.5833 8.83333ZM22.0833 26.5H83.9167C87.4308 26.5 90.801 27.896 93.2858 30.3808C95.7707 32.8657 97.1667 36.2359 97.1667 39.75V53H8.83333V39.75C8.83333 36.2359 10.2293 32.8657 12.7142 30.3808C15.199 27.896 18.5692 26.5 22.0833 26.5ZM83.9167 97.1667H22.0833C18.5692 97.1667 15.199 95.7707 12.7142 93.2858C10.2293 90.801 8.83333 87.4308 8.83333 83.9167V61.8333H48.5833V66.25C48.5833 67.4214 49.0487 68.5448 49.8769 69.3731C50.7052 70.2013 51.8286 70.6667 53 70.6667C54.1714 70.6667 55.2948 70.2013 56.1231 69.3731C56.9513 68.5448 57.4167 67.4214 57.4167 66.25V61.8333H97.1667V83.9167C97.1667 87.4308 95.7707 90.801 93.2858 93.2858C90.801 95.7707 87.4308 97.1667 83.9167 97.1667Z" fill="white"/>
</svg>
