<svg width="115" height="108" viewBox="0 0 115 108" fill="none" xmlns="http://www.w3.org/2000/svg">
<g clip-path="url(#clip0_1_233)">
<path d="M88.6458 13.5H85.5696C84.5104 9.64735 82.1217 6.23287 78.7771 3.79034C75.4324 1.34782 71.3202 0.0149119 67.0833 0L47.9167 0C43.6798 0.0149119 39.5676 1.34782 36.2229 3.79034C32.8783 6.23287 30.4896 9.64735 29.4304 13.5H26.3542C19.3669 13.5071 12.6681 16.117 7.72736 20.757C2.78665 25.397 0.00760998 31.6881 0 38.25L0 83.25C0.00760998 89.8119 2.78665 96.103 7.72736 100.743C12.6681 105.383 19.3669 107.993 26.3542 108H88.6458C95.6327 107.992 102.331 105.381 107.271 100.742C112.212 96.102 114.991 89.8115 115 83.25V38.25C114.991 31.6885 112.212 25.398 107.271 20.7583C102.331 16.1186 95.6327 13.5083 88.6458 13.5ZM26.3542 27H88.6458C91.8229 27 94.8699 28.1853 97.1164 30.295C99.3629 32.4048 100.625 35.2663 100.625 38.25V49.5H14.375V38.25C14.375 35.2663 15.6371 32.4048 17.8836 30.295C20.1301 28.1853 23.1771 27 26.3542 27ZM88.6458 94.5H26.3542C23.1771 94.5 20.1301 93.3147 17.8836 91.2049C15.6371 89.0952 14.375 86.2337 14.375 83.25V63H47.9167C47.9167 65.3869 48.9263 67.6761 50.7236 69.364C52.5208 71.0518 54.9583 72 57.5 72C60.0417 72 62.4792 71.0518 64.2764 69.364C66.0737 67.6761 67.0833 65.3869 67.0833 63H100.625V83.25C100.625 86.2337 99.3629 89.0952 97.1164 91.2049C94.8699 93.3147 91.8229 94.5 88.6458 94.5Z" fill="white"/>
</g>
<defs>
<clipPath id="clip0_1_233">
<rect width="115" height="108" fill="white"/>
</clipPath>
</defs>
</svg>
