<svg width="120" height="120" viewBox="0 0 120 120" fill="none" xmlns="http://www.w3.org/2000/svg">
<g clip-path="url(#clip0_10_322)">
<path d="M91.56 41.225C97.67 37.21 101.715 30.29 101.715 22.45C101.715 10.07 91.64 0 79.26 0H40.74C28.36 0 18.285 10.07 18.285 22.45C18.285 30.29 22.33 37.21 28.44 41.225C22.33 45.24 18.285 52.16 18.285 60C18.285 67.84 22.33 74.76 28.44 78.775C22.33 82.785 18.285 89.705 18.285 97.55C18.285 109.93 28.41 120 40.86 120C53.44 120 63.68 109.82 63.68 97.305V76.6C67.67 80.235 72.97 82.45 78.775 82.45H79.26C91.64 82.45 101.715 72.38 101.715 60C101.715 52.16 97.67 45.24 91.56 41.225ZM63.675 7.355H79.26C87.585 7.355 94.36 14.125 94.36 22.45C94.36 30.775 87.585 37.55 79.26 37.55H63.675V7.355ZM25.64 22.45C25.64 14.125 32.415 7.355 40.74 7.355H56.325V37.55H40.74C32.415 37.55 25.64 30.775 25.64 22.45ZM25.64 60C25.64 51.675 32.415 44.905 40.74 44.905H56.325V75.1H40.645C32.365 75.045 25.64 68.29 25.64 60ZM56.325 97.305C56.325 105.765 49.385 112.645 40.86 112.645C32.47 112.645 25.64 105.875 25.64 97.55C25.64 89.225 32.415 82.45 40.74 82.45H56.325V97.305ZM79.26 75.1H78.775C70.45 75.1 63.68 68.325 63.68 60C63.68 51.675 70.45 44.905 78.775 44.905H79.26C87.585 44.905 94.36 51.675 94.36 60C94.36 68.325 87.585 75.1 79.26 75.1Z" fill="white"/>
</g>
<defs>
<clipPath id="clip0_10_322">
<rect width="120" height="120" fill="white"/>
</clipPath>
</defs>
</svg>
