<svg width="73" height="91" viewBox="0 0 73 91" fill="none" xmlns="http://www.w3.org/2000/svg">
<path d="M44.54 0.0600586C44.0042 0.0601619 43.4905 0.273032 43.1117 0.651855L0.69175 43.0719C0.313069 43.4507 0.100342 43.9644 0.100342 44.5001C0.100342 45.0357 0.313069 45.5494 0.69175 45.9283L12.8117 58.0483C13.1906 58.4269 13.7043 58.6397 14.24 58.6397C14.7756 58.6397 15.2893 58.4269 15.6682 58.0483L70.2082 3.50826C70.4905 3.22572 70.6827 2.86583 70.7606 2.47406C70.8385 2.08229 70.7984 1.67623 70.6456 1.3072C70.4927 0.938175 70.2339 0.622737 69.9019 0.400756C69.5698 0.178776 69.1794 0.0602154 68.78 0.0600586H44.54ZM45.3764 4.10006H63.9035L14.24 53.7637L4.97636 44.5001L45.3764 4.10006ZM46.56 38.4401C46.0243 38.4402 45.5105 38.653 45.1317 39.0319L20.8917 63.2719C20.5131 63.6507 20.3003 64.1644 20.3003 64.7001C20.3003 65.2357 20.5131 65.7494 20.8917 66.1283L33.0117 78.2483L45.1317 90.3683C45.5105 90.7471 46.0243 90.96 46.56 90.9601H70.8C71.1994 90.9599 71.5898 90.8413 71.9219 90.6194C72.2539 90.3974 72.5127 90.0819 72.6656 89.7129C72.8184 89.3439 72.8585 88.9378 72.7806 88.5461C72.7028 88.1543 72.5105 87.7944 72.2282 87.5119L49.4164 64.7001L72.2282 41.8883C72.5105 41.6057 72.7028 41.2458 72.7806 40.8541C72.8585 40.4623 72.8184 40.0562 72.6656 39.6872C72.5127 39.3182 72.2539 39.0027 71.9219 38.7808C71.5898 38.5588 71.1994 38.4402 70.8 38.4401H46.56ZM47.3964 42.4801H65.9235L34.44 73.9637L25.1764 64.7001L47.3964 42.4801ZM46.56 67.5565L65.9235 86.9201H47.3964L37.2964 76.8201L46.56 67.5565Z" fill="white"/>
</svg>
