<svg width="170" height="170" viewBox="0 0 170 170" fill="none" xmlns="http://www.w3.org/2000/svg">
<path fill-rule="evenodd" clip-rule="evenodd" d="M84.993 9.63342C43.3805 9.63342 9.6333 43.3761 9.6333 85.0026C9.6333 118.296 31.2262 146.547 61.1747 156.518C64.9456 157.207 66.3196 154.879 66.3196 152.881C66.3196 151.09 66.2549 146.353 66.2178 140.065C45.2544 144.618 40.8312 129.96 40.8312 129.96C37.4027 121.253 32.4615 118.934 32.4615 118.934C25.6186 114.262 32.9797 114.354 32.9797 114.354C40.5443 114.886 44.5232 122.122 44.5232 122.122C51.2458 133.638 62.1649 130.312 66.4585 128.383C67.1432 123.515 69.0911 120.193 71.2425 118.31C54.5077 116.404 36.9123 109.94 36.9123 81.0607C36.9123 72.8297 39.8503 66.1071 44.6714 60.8374C43.8941 58.9311 41.3077 51.2692 45.4117 40.8915C45.4117 40.8915 51.7362 38.865 66.1345 48.6133C72.1446 46.9431 78.5943 46.1104 85.0023 46.078C91.4056 46.1104 97.8507 46.9431 103.87 48.6133C118.259 38.865 124.574 40.8915 124.574 40.8915C128.688 51.2692 126.102 58.9311 125.329 60.8374C130.159 66.1071 133.074 72.8297 133.074 81.0607C133.074 110.014 115.451 116.385 98.665 118.25C101.367 120.578 103.777 125.177 103.777 132.209C103.777 142.281 103.685 150.41 103.685 152.881C103.685 154.898 105.045 157.244 108.867 156.508C138.793 146.52 160.367 118.292 160.367 85.0026C160.367 43.3761 126.62 9.63342 84.993 9.63342Z" fill="white"/>
</svg>
