<svg width="81" height="81" viewBox="0 0 81 81" fill="none" xmlns="http://www.w3.org/2000/svg">
<path d="M40.5 7.29675C51.3135 7.29675 52.596 7.33725 56.8654 7.533C61.2799 7.7355 65.826 8.74125 69.0424 11.9576C72.2891 15.2044 73.2645 19.7066 73.467 24.1346C73.6628 28.404 73.7032 29.6865 73.7032 40.5C73.7032 51.3135 73.6628 52.596 73.467 56.8654C73.2679 61.2563 72.2385 65.8463 69.0424 69.0424C65.7956 72.2891 61.2968 73.2645 56.8654 73.467C52.596 73.6628 51.3135 73.7032 40.5 73.7032C29.6865 73.7032 28.404 73.6628 24.1346 73.467C19.7775 73.2679 15.1267 72.2149 11.9576 69.0424C8.72775 65.8125 7.7355 61.2664 7.533 56.8654C7.33725 52.596 7.29675 51.3135 7.29675 40.5C7.29675 29.6865 7.33725 28.404 7.533 24.1346C7.73213 19.7606 8.77162 15.1436 11.9576 11.9576C15.1976 8.71762 19.7167 7.7355 24.1346 7.533C28.404 7.33725 29.6865 7.29675 40.5 7.29675ZM40.5 0C29.5009 0 28.1205 0.04725 23.8005 0.243C17.5399 0.529875 11.3231 2.27137 6.79725 6.79725C2.2545 11.34 0.529875 17.5433 0.243 23.8005C0.04725 28.1205 0 29.5009 0 40.5C0 51.4991 0.04725 52.8795 0.243 57.1995C0.529875 63.4534 2.27812 69.687 6.79725 74.2028C11.3366 78.7421 17.55 80.4701 23.8005 80.757C28.1205 80.9528 29.5009 81 40.5 81C51.4991 81 52.8795 80.9528 57.1995 80.757C63.4567 80.4701 69.6803 78.7253 74.2028 74.2028C78.7489 69.6566 80.4701 63.4567 80.757 57.1995C80.9528 52.8795 81 51.4991 81 40.5C81 29.5009 80.9528 28.1205 80.757 23.8005C80.4701 17.5399 78.7253 11.3197 74.2028 6.79725C69.6701 2.26462 63.4399 0.5265 57.1995 0.243C52.8795 0.04725 51.4991 0 40.5 0Z" fill="white"/>
<path d="M40.5 19.7032C29.0149 19.7032 19.7032 29.0149 19.7032 40.5C19.7032 51.9851 29.0149 61.2968 40.5 61.2968C51.9851 61.2968 61.2968 51.9851 61.2968 40.5C61.2968 29.0149 51.9851 19.7032 40.5 19.7032ZM40.5 54C33.0446 54 27 47.9554 27 40.5C27 33.0446 33.0446 27 40.5 27C47.9554 27 54 33.0446 54 40.5C54 47.9554 47.9554 54 40.5 54Z" fill="white"/>
<path d="M62.1203 23.7398C64.8044 23.7398 66.9803 21.5639 66.9803 18.8798C66.9803 16.1957 64.8044 14.0198 62.1203 14.0198C59.4362 14.0198 57.2603 16.1957 57.2603 18.8798C57.2603 21.5639 59.4362 23.7398 62.1203 23.7398Z" fill="white"/>
</svg>
