<svg width="114" height="114" viewBox="0 0 114 114" fill="none" xmlns="http://www.w3.org/2000/svg">
<g clip-path="url(#clip0_12_537)">
<path d="M5.225 28.7373C2.3085 28.7373 7.54345e-08 31.0173 7.54345e-08 33.8673C-0.000116833 34.5491 0.135656 35.224 0.399383 35.8527C0.66311 36.4813 1.0495 37.0511 1.53597 37.5288C2.02245 38.0064 2.59924 38.3823 3.23265 38.6344C3.86605 38.8866 4.54337 39.0099 5.225 38.9973C8.17 38.9973 10.4975 36.7173 10.4975 33.8673C10.4975 31.0173 8.17 28.7373 5.225 28.7373ZM41.3725 28.8323C25.4125 28.8323 15.4375 39.7098 15.4375 56.9998C15.4375 74.4323 25.4125 85.2623 41.3725 85.2623C57.2375 85.2623 67.26 74.4323 67.26 56.9998C67.26 39.7098 57.2375 28.8323 41.3725 28.8323ZM92.8625 28.8323C80.9875 28.8323 72.5325 35.3873 72.5325 45.1248C72.5325 52.8673 77.33 57.7123 87.4 60.0398L94.4775 61.7498C101.365 63.3173 104.168 65.5973 104.168 69.5398C104.168 74.0998 99.56 77.3298 93.005 77.3298C86.3075 77.3298 81.2725 74.0523 80.75 69.0173H71.25C71.63 79.0873 79.895 85.2623 92.435 85.2623C105.687 85.2623 114 78.7548 114 68.3998C114 60.2773 109.25 55.6698 98.23 53.1523L91.9125 51.7273C85.215 50.1123 82.46 47.9748 82.46 44.3648C82.46 39.8048 86.64 36.7648 92.815 36.7648C99.0375 36.7648 103.312 39.8523 103.787 44.9348H113.097C112.86 35.3398 104.927 28.8323 92.8625 28.8323ZM41.3725 37.1448C51.0625 37.1448 57.285 44.8873 57.285 56.9998C57.285 69.2073 51.0625 76.9498 41.3725 76.9498C31.5875 76.9498 25.4125 69.2073 25.4125 56.9998C25.4125 44.8873 31.5875 37.1448 41.3725 37.1448ZM0.52725 44.2223V84.3598H9.975V44.2223H0.5225H0.52725Z" fill="white"/>
</g>
<defs>
<clipPath id="clip0_12_537">
<rect width="114" height="114" fill="white"/>
</clipPath>
</defs>
</svg>
