<svg width="140" height="140" viewBox="0 0 140 140" fill="none" xmlns="http://www.w3.org/2000/svg">
<g clip-path="url(#clip0_12_455)">
<path d="M110.833 34.9998H75.8333V17.4998C75.8333 15.9527 75.2188 14.469 74.1248 13.375C73.0308 12.2811 71.5471 11.6665 70 11.6665C68.4529 11.6665 66.9692 12.2811 65.8752 13.375C64.7812 14.469 64.1667 15.9527 64.1667 17.4998V34.9998H29.1667C21.434 35.0091 14.0208 38.085 8.55295 43.5528C3.08514 49.0206 0.0092625 56.4339 0 64.1665L0 87.4998C0.0092625 95.2325 3.08514 102.646 8.55295 108.114C14.0208 113.581 21.434 116.657 29.1667 116.667H110.833C118.566 116.657 125.979 113.581 131.447 108.114C136.915 102.646 139.991 95.2325 140 87.4998V64.1665C139.991 56.4339 136.915 49.0206 131.447 43.5528C125.979 38.085 118.566 35.0091 110.833 34.9998ZM128.333 87.4998C128.333 92.1411 126.49 96.5923 123.208 99.8742C119.926 103.156 115.475 105 110.833 105H29.1667C24.5254 105 20.0742 103.156 16.7923 99.8742C13.5104 96.5923 11.6667 92.1411 11.6667 87.4998V64.1665C11.6667 59.5252 13.5104 55.074 16.7923 51.7921C20.0742 48.5102 24.5254 46.6665 29.1667 46.6665H110.833C115.475 46.6665 119.926 48.5102 123.208 51.7921C126.49 55.074 128.333 59.5252 128.333 64.1665V87.4998Z" fill="white"/>
<path d="M87.4998 81.6665H52.4998C50.9527 81.6665 49.469 82.2811 48.375 83.375C47.2811 84.469 46.6665 85.9527 46.6665 87.4998C46.6665 89.0469 47.2811 90.5307 48.375 91.6246C49.469 92.7186 50.9527 93.3332 52.4998 93.3332H87.4998C89.0469 93.3332 90.5307 92.7186 91.6246 91.6246C92.7186 90.5307 93.3332 89.0469 93.3332 87.4998C93.3332 85.9527 92.7186 84.469 91.6246 83.375C90.5307 82.2811 89.0469 81.6665 87.4998 81.6665Z" fill="white"/>
<path d="M58.3333 70.0002H64.1667C65.7138 70.0002 67.1975 69.3856 68.2915 68.2916C69.3854 67.1977 70 65.7139 70 64.1668C70 62.6197 69.3854 61.136 68.2915 60.042C67.1975 58.9481 65.7138 58.3335 64.1667 58.3335H58.3333C56.7862 58.3335 55.3025 58.9481 54.2085 60.042C53.1146 61.136 52.5 62.6197 52.5 64.1668C52.5 65.7139 53.1146 67.1977 54.2085 68.2916C55.3025 69.3856 56.7862 70.0002 58.3333 70.0002Z" fill="white"/>
<path d="M110.833 58.3335H87.4998C85.9527 58.3335 84.469 58.9481 83.375 60.042C82.2811 61.136 81.6665 62.6197 81.6665 64.1668C81.6665 65.7139 82.2811 67.1977 83.375 68.2916C84.469 69.3856 85.9527 70.0002 87.4998 70.0002H110.833C112.38 70.0002 113.864 69.3856 114.958 68.2916C116.052 67.1977 116.667 65.7139 116.667 64.1668C116.667 62.6197 116.052 61.136 114.958 60.042C113.864 58.9481 112.38 58.3335 110.833 58.3335Z" fill="white"/>
<path d="M35.0002 58.3335H29.1668C27.6197 58.3335 26.136 58.9481 25.042 60.042C23.9481 61.136 23.3335 62.6197 23.3335 64.1668C23.3335 65.7139 23.9481 67.1977 25.042 68.2916C26.136 69.3856 27.6197 70.0002 29.1668 70.0002H35.0002C36.5473 70.0002 38.031 69.3856 39.125 68.2916C40.2189 67.1977 40.8335 65.7139 40.8335 64.1668C40.8335 62.6197 40.2189 61.136 39.125 60.042C38.031 58.9481 36.5473 58.3335 35.0002 58.3335Z" fill="white"/>
<path d="M29.1668 93.3332C32.3885 93.3332 35.0002 90.7215 35.0002 87.4998C35.0002 84.2782 32.3885 81.6665 29.1668 81.6665C25.9452 81.6665 23.3335 84.2782 23.3335 87.4998C23.3335 90.7215 25.9452 93.3332 29.1668 93.3332Z" fill="white"/>
<path d="M110.833 93.3332C114.055 93.3332 116.667 90.7215 116.667 87.4998C116.667 84.2782 114.055 81.6665 110.833 81.6665C107.612 81.6665 105 84.2782 105 87.4998C105 90.7215 107.612 93.3332 110.833 93.3332Z" fill="white"/>
</g>
<defs>
<clipPath id="clip0_12_455">
<rect width="140" height="140" fill="white"/>
</clipPath>
</defs>
</svg>
