<svg width="144" height="144" viewBox="0 0 144 144" fill="none" xmlns="http://www.w3.org/2000/svg">
<g clip-path="url(#clip0_90_32)">
<path d="M144 138H127.296L120.876 120H91.626L85.164 138H68.982L98.628 60H114.252L144 138ZM116.562 107.586L106.332 78.168L96.06 107.586H116.562ZM61.05 42.762C61.806 39.846 62.256 37.65 62.676 35.49L49.482 32.922C49.266 34.032 48.87 36.12 48.162 38.922C43.71 38.268 38.97 38.19 34.17 38.676C34.284 35.454 34.482 32.298 34.758 29.262H49.494V16.764H36.528C37.164 13.578 37.716 11.67 38.256 9.87L25.374 6C24.426 9.156 23.634 12.252 22.842 16.764H8.136V29.262H21.24C20.892 33.3 20.682 37.488 20.622 41.724C6.144 47.04 0 57.174 0 66.366C0 77.22 8.562 86.76 22.104 85.53C38.916 84 50.142 71.304 56.724 55.686C63.528 59.61 66.372 66.204 63.81 72.312C61.434 77.958 54.444 83.34 41.1 83.064V96.516C55.914 96.744 70.488 91.122 76.2 77.52C81.78 64.236 75.408 49.71 61.05 42.762V42.762ZM43.698 51.948C41.604 56.592 38.844 61.206 35.328 64.842C34.788 60.972 34.422 56.73 34.224 52.2C37.422 51.78 40.656 51.702 43.698 51.948V51.948ZM20.97 56.292C21.342 61.974 21.984 67.2 22.872 71.868C10.896 74.058 10.416 62.25 20.97 56.292Z" fill="white"/>
</g>
<defs>
<clipPath id="clip0_90_32">
<rect width="144" height="144" fill="white"/>
</clipPath>
</defs>
</svg>
