<svg width="140" height="140" viewBox="0 0 140 140" fill="none" xmlns="http://www.w3.org/2000/svg">
<path d="M128.333 88.5733V46.6667C128.324 38.934 125.248 31.5208 119.78 26.0529C114.313 20.5851 106.899 17.5093 99.1668 17.5H40.8334C33.1008 17.5093 25.6875 20.5851 20.2197 26.0529C14.7519 31.5208 11.676 38.934 11.6668 46.6667V88.5733C7.77779 89.9431 4.49909 92.6451 2.41137 96.2006C0.323655 99.7562 -0.438343 103.936 0.260338 107.999C0.95902 112.063 3.07329 115.748 6.22868 118.402C9.38407 121.056 13.3769 122.508 17.5001 122.5H122.5C126.623 122.508 130.616 121.056 133.772 118.402C136.927 115.748 139.041 112.063 139.74 107.999C140.439 103.936 139.677 99.7562 137.589 96.2006C135.501 92.6451 132.222 89.9431 128.333 88.5733ZM40.8334 29.1667H99.1668C103.808 29.1667 108.259 31.0104 111.541 34.2923C114.823 37.5742 116.667 42.0254 116.667 46.6667V87.5H92.4526C90.756 87.4989 89.0795 87.8678 87.54 88.5811C86.0006 89.2944 84.6353 90.3349 83.5393 91.63L82.0984 93.3333H57.8959L56.4609 91.63C55.3649 90.3349 53.9996 89.2944 52.4601 88.5811C50.9207 87.8678 49.2442 87.4989 47.5476 87.5H23.3334V46.6667C23.3334 42.0254 25.1772 37.5742 28.4591 34.2923C31.7409 31.0104 36.1921 29.1667 40.8334 29.1667ZM122.5 110.833H17.5001C15.953 110.833 14.4693 110.219 13.3753 109.125C12.2813 108.031 11.6668 106.547 11.6668 105C11.6668 103.453 12.2813 101.969 13.3753 100.875C14.4693 99.7812 15.953 99.1667 17.5001 99.1667H47.5534L48.9884 100.87C50.0838 102.164 51.4482 103.204 52.9866 103.918C54.5249 104.631 56.2003 105 57.8959 105H82.0984C83.7951 105.001 85.4716 104.632 87.011 103.919C88.5504 103.206 89.9157 102.165 91.0118 100.87L92.4526 99.1667H122.5C124.047 99.1667 125.531 99.7812 126.625 100.875C127.719 101.969 128.333 103.453 128.333 105C128.333 106.547 127.719 108.031 126.625 109.125C125.531 110.219 124.047 110.833 122.5 110.833Z" fill="white"/>
</svg>
