<svg width="120" height="120" viewBox="0 0 120 120" fill="none" xmlns="http://www.w3.org/2000/svg">
<g clip-path="url(#clip0_12_425)">
<path d="M89.9999 45.32C90.0006 43.3088 89.6034 41.3173 88.8311 39.4604C88.0588 37.6034 86.9266 35.9175 85.4999 34.5C82.5805 31.7142 78.7002 30.16 74.6649 30.16C70.6296 30.16 66.7494 31.7142 63.8299 34.5L4.49992 93.845C1.79202 96.7486 0.31713 100.59 0.386104 104.56C0.455078 108.53 2.06252 112.318 4.86967 115.125C7.67681 117.933 11.4644 119.541 15.4341 119.611C19.4039 119.681 23.2457 118.207 26.1499 115.5L85.4999 56.155C86.9289 54.736 88.0623 53.0478 88.8347 51.188C89.6071 49.3283 90.0032 47.3338 89.9999 45.32ZM19.0799 108.44C18.0692 109.403 16.7263 109.941 15.3299 109.941C13.9335 109.941 12.5907 109.403 11.5799 108.44C10.587 107.445 10.0294 106.096 10.0294 104.69C10.0294 103.284 10.587 101.935 11.5799 100.94L50.4249 62.09L57.9499 69.615L19.0799 108.44ZM78.4399 49.08L64.9999 62.525L57.4999 55L70.9449 41.56C71.4242 41.0125 72.0108 40.5692 72.6684 40.2576C73.326 39.9461 74.0406 39.7728 74.7678 39.7487C75.4951 39.7246 76.2196 39.85 76.8964 40.1173C77.5732 40.3846 78.1879 40.788 78.7024 41.3025C79.217 41.817 79.6204 42.4318 79.8876 43.1086C80.1549 43.7854 80.2804 44.5098 80.2562 45.2371C80.2321 45.9644 80.0589 46.6789 79.7473 47.3365C79.4357 47.9941 78.9924 48.5807 78.4449 49.06L78.4399 49.08ZM24.3149 14.275L32.0649 12.065L34.2749 4.315C34.6309 3.07142 35.3822 1.97759 36.4151 1.1989C37.448 0.420213 38.7064 -0.000976563 39.9999 -0.000976562C41.2935 -0.000976563 42.5518 0.420213 43.5847 1.1989C44.6176 1.97759 45.3689 3.07142 45.7249 4.315L47.9349 12.065L55.6849 14.275C56.9285 14.631 58.0223 15.3823 58.801 16.4152C59.5797 17.4481 60.0009 18.7065 60.0009 20C60.0009 21.2935 59.5797 22.5519 58.801 23.5848C58.0223 24.6177 56.9285 25.369 55.6849 25.725L47.9349 27.935L45.7249 35.685C45.3689 36.9286 44.6176 38.0224 43.5847 38.8011C42.5518 39.5798 41.2935 40.001 39.9999 40.001C38.7064 40.001 37.448 39.5798 36.4151 38.8011C35.3822 38.0224 34.6309 36.9286 34.2749 35.685L32.0649 27.935L24.3149 25.725C23.0713 25.369 21.9775 24.6177 21.1988 23.5848C20.4201 22.5519 19.9989 21.2935 19.9989 20C19.9989 18.7065 20.4201 17.4481 21.1988 16.4152C21.9775 15.3823 23.0713 14.631 24.3149 14.275ZM115.685 85.725L107.935 87.935L105.725 95.685C105.369 96.9286 104.618 98.0224 103.585 98.8011C102.552 99.5798 101.293 100.001 99.9999 100.001C98.7064 100.001 97.448 99.5798 96.4151 98.8011C95.3822 98.0224 94.631 96.9286 94.2749 95.685L92.0649 87.935L84.3149 85.725C83.0714 85.369 81.9775 84.6177 81.1988 83.5848C80.4201 82.5519 79.9989 81.2935 79.9989 80C79.9989 78.7065 80.4201 77.4481 81.1988 76.4152C81.9775 75.3823 83.0714 74.631 84.3149 74.275L92.0649 72.065L94.2749 64.315C94.631 63.0714 95.3822 61.9776 96.4151 61.1989C97.448 60.4202 98.7064 59.999 99.9999 59.999C101.293 59.999 102.552 60.4202 103.585 61.1989C104.618 61.9776 105.369 63.0714 105.725 64.315L107.935 72.065L115.685 74.275C116.928 74.631 118.022 75.3823 118.801 76.4152C119.58 77.4481 120.001 78.7065 120.001 80C120.001 81.2935 119.58 82.5519 118.801 83.5848C118.022 84.6177 116.928 85.369 115.685 85.725ZM88.7749 12.5L95.5549 10.565L97.4999 3.775C97.8165 2.69408 98.4748 1.74486 99.3762 1.06956C100.278 0.394269 101.374 0.0292739 102.5 0.0292739C103.626 0.0292739 104.722 0.394269 105.624 1.06956C106.525 1.74486 107.183 2.69408 107.5 3.775L109.435 10.555L116.215 12.49C117.296 12.8066 118.245 13.4649 118.92 14.3663C119.596 15.2677 119.961 16.3637 119.961 17.49C119.961 18.6163 119.596 19.7123 118.92 20.6137C118.245 21.5151 117.296 22.1734 116.215 22.49L109.435 24.425L107.5 31.22C107.183 32.3009 106.525 33.2501 105.624 33.9254C104.722 34.6007 103.626 34.9657 102.5 34.9657C101.374 34.9657 100.278 34.6007 99.3762 33.9254C98.4748 33.2501 97.8165 32.3009 97.4999 31.22L95.5649 24.445L88.7749 22.5C87.694 22.1834 86.7448 21.5251 86.0695 20.6237C85.3942 19.7223 85.0292 18.6263 85.0292 17.5C85.0292 16.3737 85.3942 15.2777 86.0695 14.3763C86.7448 13.4749 87.694 12.8166 88.7749 12.5Z" fill="white"/>
</g>
<defs>
<clipPath id="clip0_12_425">
<rect width="120" height="120" fill="white"/>
</clipPath>
</defs>
</svg>
