<svg width="77" height="77" viewBox="0 0 77 77" fill="none" xmlns="http://www.w3.org/2000/svg">
<g clip-path="url(#clip0_47_49)">
<path d="M38.5001 19.25C35.9619 19.25 33.4807 20.0027 31.3703 21.4128C29.2598 22.823 27.615 24.8272 26.6436 27.1722C25.6723 29.5172 25.4182 32.0976 25.9133 34.587C26.4085 37.0764 27.6308 39.3631 29.4256 41.1579C31.2203 42.9526 33.507 44.1749 35.9964 44.6701C38.4859 45.1653 41.0662 44.9111 43.4112 43.9398C45.7562 42.9685 47.7605 41.3236 49.1706 39.2132C50.5808 37.1027 51.3334 34.6215 51.3334 32.0833C51.3334 28.6797 49.9813 25.4155 47.5746 23.0088C45.1679 20.6021 41.9037 19.25 38.5001 19.25ZM38.5001 38.5C37.231 38.5 35.9904 38.1237 34.9352 37.4186C33.88 36.7135 33.0575 35.7114 32.5719 34.5389C32.0862 33.3664 31.9591 32.0762 32.2067 30.8315C32.4543 29.5868 33.0654 28.4435 33.9628 27.5461C34.8602 26.6487 36.0035 26.0375 37.2483 25.79C38.493 25.5424 39.7831 25.6694 40.9556 26.1551C42.1281 26.6408 43.1303 27.4632 43.8354 28.5184C44.5404 29.5736 44.9168 30.8142 44.9168 32.0833C44.9168 33.7851 44.2407 35.4172 43.0374 36.6206C41.834 37.824 40.2019 38.5 38.5001 38.5Z" fill="white"/>
<path d="M38.5 77.0001C35.7984 77.0139 33.1328 76.3803 30.7264 75.1522C28.32 73.9242 26.2429 72.1375 24.6689 69.9417C12.4419 53.0755 6.24023 40.3962 6.24023 32.2534C6.24023 23.6976 9.63902 15.4922 15.6889 9.44233C21.7388 3.39244 29.9442 -0.00634766 38.5 -0.00634766C47.0559 -0.00634766 55.2613 3.39244 61.3111 9.44233C67.361 15.4922 70.7598 23.6976 70.7598 32.2534C70.7598 40.3962 64.5581 53.0755 52.3312 69.9417C50.7572 72.1375 48.68 73.9242 46.2736 75.1522C43.8672 76.3803 41.2016 77.0139 38.5 77.0001ZM38.5 6.99744C31.8024 7.00509 25.3812 9.66911 20.6452 14.4051C15.9093 19.141 13.2453 25.5622 13.2376 32.2599C13.2376 38.7086 19.311 50.634 30.3348 65.8383C31.2707 67.1273 32.4984 68.1765 33.9176 68.8999C35.3368 69.6233 36.9071 70.0005 38.5 70.0005C40.093 70.0005 41.6633 69.6233 43.0824 68.8999C44.5016 68.1765 45.7294 67.1273 46.6652 65.8383C57.6891 50.634 63.7624 38.7086 63.7624 32.2599C63.7548 25.5622 61.0908 19.141 56.3548 14.4051C51.6188 9.66911 45.1977 7.00509 38.5 6.99744Z" fill="white"/>
</g>
<defs>
<clipPath id="clip0_47_49">
<rect width="77" height="77" fill="white"/>
</clipPath>
</defs>
</svg>
