<svg width="140" height="140" viewBox="0 0 140 140" fill="none" xmlns="http://www.w3.org/2000/svg">
<g clip-path="url(#clip0_23_4)">
<path d="M140 40.8332V46.6665C140 49.8865 137.392 52.4998 134.167 52.4998C130.941 52.4998 128.333 49.8865 128.333 46.6665V40.8332C128.333 31.1848 120.482 23.3332 110.833 23.3332H29.1667C19.5183 23.3332 11.6667 31.1848 11.6667 40.8332V99.1665C11.6667 108.815 19.5183 116.667 29.1667 116.667H46.6667C49.8925 116.667 52.5 119.28 52.5 122.5C52.5 125.72 49.8925 128.333 46.6667 128.333H29.1667C13.0842 128.333 -3.8147e-06 115.249 -3.8147e-06 99.1665V40.8332C-3.8147e-06 24.7507 13.0842 11.6665 29.1667 11.6665H110.833C126.916 11.6665 140 24.7507 140 40.8332ZM87.5 52.4998H110.833C114.059 52.4998 116.667 49.8865 116.667 46.6665C116.667 43.4465 114.059 40.8332 110.833 40.8332H87.5C84.2742 40.8332 81.6667 43.4465 81.6667 46.6665C81.6667 49.8865 84.2742 52.4998 87.5 52.4998ZM134.873 69.294C138.174 72.5957 140 76.994 140 81.6665C140 86.339 138.174 90.7373 134.873 94.0448L95.7483 133.169C91.3442 137.573 85.4817 140.006 79.2517 140.006H70C66.7742 140.006 64.1667 137.392 64.1667 134.172V124.921C64.1667 118.691 66.5933 112.828 71.0033 108.424L110.127 69.2998C116.952 62.4748 128.048 62.4748 134.873 69.2998V69.294ZM128.333 81.6665C128.333 80.109 127.727 78.6448 126.624 77.5423C124.343 75.2615 120.657 75.2673 118.376 77.5423L79.2517 116.667C77.0817 118.842 75.8333 121.847 75.8333 124.915V128.333H79.2517C82.3667 128.333 85.295 127.12 87.5 124.915L126.624 85.7907C127.727 84.6882 128.333 83.224 128.333 81.6665V81.6665ZM52.5 87.4998H39.27C37.1933 87.4998 35.2567 86.3798 34.2125 84.5832C32.6083 81.789 29.0442 80.8265 26.2442 82.454C23.4558 84.0698 22.4992 87.634 24.1208 90.4223C27.2358 95.8182 33.0458 99.1665 39.2758 99.1665H40.8392C40.8392 102.387 43.4467 105 46.6725 105C49.8983 105 52.5058 102.387 52.5058 99.1665C62.1542 99.1665 70.0058 91.3148 70.0058 81.6665C70.0058 73.7332 64.3242 67.0248 56.5017 65.724L38.7625 62.7665C36.5867 62.4048 35.0058 60.5382 35.0058 58.3332C35.0058 55.119 37.6192 52.4998 40.8392 52.4998H54.0692C56.1458 52.4998 58.0825 53.6198 59.1267 55.4165C60.7308 58.2048 64.2892 59.1615 67.095 57.5457C69.8833 55.9298 70.84 52.3657 69.2183 49.5773C66.1033 44.1815 60.2933 40.8273 54.0633 40.8273H52.5C52.5 37.6073 49.8925 34.994 46.6667 34.994C43.4408 34.994 40.8333 37.6073 40.8333 40.8273C31.185 40.8273 23.3333 48.679 23.3333 58.3273C23.3333 66.2607 29.015 72.969 36.8375 74.2698L54.5767 77.2273C56.7525 77.589 58.3333 79.4557 58.3333 81.6607C58.3333 84.8748 55.72 87.494 52.5 87.494V87.4998ZM81.6667 69.9998C81.6667 73.2198 84.28 75.8332 87.5 75.8332C90.72 75.8332 93.3333 73.2198 93.3333 69.9998C93.3333 66.7798 90.72 64.1665 87.5 64.1665C84.28 64.1665 81.6667 66.7798 81.6667 69.9998Z" fill="white"/>
</g>
<defs>
<clipPath id="clip0_23_4">
<rect width="140" height="140" fill="white"/>
</clipPath>
</defs>
</svg>
