<svg width="140" height="140" viewBox="0 0 140 140" fill="none" xmlns="http://www.w3.org/2000/svg">
<g clip-path="url(#clip0_12_475)">
<path d="M75.8335 17.5V5.83333C75.8335 4.28624 75.2189 2.80251 74.125 1.70854C73.031 0.614582 71.5473 0 70.0002 0C68.4531 0 66.9693 0.614582 65.8754 1.70854C64.7814 2.80251 64.1668 4.28624 64.1668 5.83333V17.5C53.3409 17.5124 42.962 21.8184 35.3069 29.4734C27.6519 37.1285 23.3458 47.5075 23.3335 58.3333V93.3333C23.3335 105.71 28.2501 117.58 37.0018 126.332C45.7535 135.083 57.6234 140 70.0002 140C82.3769 140 94.2468 135.083 102.998 126.332C111.75 117.58 116.667 105.71 116.667 93.3333V58.3333C116.654 47.5075 112.348 37.1285 104.693 29.4734C97.0383 21.8184 86.6594 17.5124 75.8335 17.5ZM105 93.3333C105 102.616 101.313 111.518 94.7489 118.082C88.1851 124.646 79.2827 128.333 70.0002 128.333C60.7176 128.333 51.8152 124.646 45.2514 118.082C38.6877 111.518 35.0002 102.616 35.0002 93.3333V58.3333C35.0094 50.6007 38.0853 43.1874 43.5531 37.7196C49.0209 32.2518 56.4342 29.1759 64.1668 29.1667H75.8335C83.5661 29.1759 90.9794 32.2518 96.4472 37.7196C101.915 43.1874 104.991 50.6007 105 58.3333V93.3333Z" fill="white"/>
<path d="M69.9998 40.8335C68.4527 40.8335 66.969 41.4481 65.875 42.542C64.7811 43.636 64.1665 45.1197 64.1665 46.6668V58.3335C64.1665 59.8806 64.7811 61.3643 65.875 62.4583C66.969 63.5522 68.4527 64.1668 69.9998 64.1668C71.5469 64.1668 73.0307 63.5522 74.1246 62.4583C75.2186 61.3643 75.8332 59.8806 75.8332 58.3335V46.6668C75.8332 45.1197 75.2186 43.636 74.1246 42.542C73.0307 41.4481 71.5469 40.8335 69.9998 40.8335Z" fill="white"/>
</g>
<defs>
<clipPath id="clip0_12_475">
<rect width="140" height="140" fill="white"/>
</clipPath>
</defs>
</svg>
