<svg width="512" height="512" viewBox="0 0 512 512" fill="none" xmlns="http://www.w3.org/2000/svg">
<g clip-path="url(#clip0_84_22)">
<path d="M405.333 490.667C405.333 496.325 403.086 501.751 399.085 505.752C395.084 509.753 389.658 512 384 512H21.3333C15.6754 512 10.2492 509.753 6.24839 505.752C2.24761 501.751 0 496.325 0 490.667C0 485.009 2.24761 479.583 6.24839 475.582C10.2492 471.581 15.6754 469.333 21.3333 469.333H384C389.658 469.333 395.084 471.581 399.085 475.582C403.086 479.583 405.333 485.009 405.333 490.667ZM512 170.667C512 229.845 465.387 298.667 405.333 298.667H370.944L364.544 337.515C360.46 362.469 347.616 385.151 328.317 401.49C309.019 417.829 284.529 426.755 259.243 426.667H146.176C120.904 426.735 96.4349 417.799 77.154 401.462C57.8731 385.125 45.0417 362.455 40.96 337.515L1.19467 99.3495C-0.840238 87.1287 -0.189701 74.6113 3.10107 62.6673C6.39185 50.7233 12.2439 39.639 20.2506 30.1848C28.2574 20.7307 38.2267 13.1333 49.4658 7.92071C60.7049 2.70812 72.9443 0.00531474 85.3333 0.000127085H320C331.201 -0.0425808 342.299 2.13814 352.651 6.41592C363.003 10.6937 372.404 16.9835 380.307 24.9207C388.211 32.858 394.46 42.2849 398.694 52.6551C402.928 63.0253 405.061 74.1327 404.971 85.3335H405.333C472.128 85.3335 512 117.333 512 170.667ZM362.069 92.3521C363.089 86.2409 362.765 79.9811 361.12 74.0078C359.475 68.0344 356.55 62.4909 352.546 57.7626C348.543 53.0343 343.557 49.2346 337.937 46.6277C332.316 44.0207 326.196 42.6691 320 42.6668H85.3333C79.1399 42.6696 73.0213 44.0208 67.4026 46.6265C61.7839 49.2322 56.7999 53.0299 52.7967 57.7557C48.7935 62.4816 45.8672 68.0223 44.221 73.993C42.5748 79.9637 42.2483 86.2212 43.264 92.3308L82.9653 330.517C85.4185 345.478 93.1182 359.076 104.685 368.876C116.252 378.676 130.93 384.038 146.091 384H259.157C274.318 384.038 288.996 378.676 300.563 368.876C312.13 359.076 319.83 345.478 322.283 330.517L362.069 92.3521ZM469.333 170.667C469.333 160 469.333 128 405.333 128H399.381L378.048 256H405.333C438.293 256 469.333 207.915 469.333 170.667Z" fill="white"/>
</g>
<defs>
<clipPath id="clip0_84_22">
<rect width="512" height="512" fill="white"/>
</clipPath>
</defs>
</svg>
