<svg width="114" height="114" viewBox="0 0 114 114" fill="none" xmlns="http://www.w3.org/2000/svg">
<g clip-path="url(#clip0_12_539)">
<path d="M89.9613 106.68C89.9613 110.603 86.7816 113.782 82.8591 113.782H7.10227C3.17974 113.782 -1.51047e-05 110.603 -1.51047e-05 106.68C-1.51047e-05 102.757 3.17974 99.5777 7.10227 99.5777H82.8593C86.7816 99.5779 89.9613 102.758 89.9613 106.68ZM114 40.3928C114 54.6256 102.636 71.169 87.9585 71.169H80.9133C78.2423 82.3143 68.2786 90.1751 56.8178 90.1791H33.1437C20.9375 90.2054 10.518 81.3651 8.55577 69.3176L0.298344 24.195C-1.62897 13.0452 5.84716 2.44434 16.9969 0.517249C18.1451 0.318862 19.3081 0.218667 20.4732 0.217776H69.4879C80.2114 0.21221 89.1084 8.51105 89.8476 19.209C104.98 19.8293 114 27.6087 114 40.3928ZM75.686 21.6333C76.2063 18.2104 73.8535 15.0137 70.4306 14.4934C70.1187 14.446 69.8036 14.4221 69.4881 14.4221H20.4732C17.0111 14.4355 14.2152 17.2528 14.2284 20.7151C14.2297 21.0609 14.2596 21.406 14.3179 21.7469L22.5896 66.8744C23.3925 72.0897 27.867 75.9476 33.1435 75.9748H56.8176C62.0745 75.9815 66.5577 72.1685 67.3951 66.9786V66.865L75.686 21.6333ZM99.7956 40.3928C99.7956 38.2668 99.7956 33.2905 87.9917 33.2905L83.6546 56.9646H87.9585C93.3798 56.9646 99.7956 47.9684 99.7956 40.3928Z" fill="white"/>
</g>
<defs>
<clipPath id="clip0_12_539">
<rect width="114" height="114" fill="white"/>
</clipPath>
</defs>
</svg>
