<svg width="142" height="142" viewBox="0 0 142 142" fill="none" xmlns="http://www.w3.org/2000/svg">
<g clip-path="url(#clip0_10_356)">
<path d="M26.3822 24.8973C30.7961 28.4828 32.4527 28.2107 40.7479 27.6545L118.937 22.9626C120.593 22.9626 119.215 21.3059 118.664 21.0337L105.671 11.644C103.186 9.71516 99.8672 7.50233 93.5127 8.05258L17.809 13.5787C15.0518 13.8509 14.4956 15.2354 15.5961 16.3359L26.3822 24.8973ZM31.0742 43.1207V125.386C31.0742 129.806 33.2811 131.462 38.257 131.184L124.185 126.214C129.161 125.942 129.717 122.901 129.717 119.31V37.5945C129.717 34.009 128.338 32.0742 125.291 32.3464L35.4939 37.5945C32.1806 37.8726 31.0742 39.5292 31.0742 43.1147V43.1207ZM115.901 47.5286C116.452 50.0136 115.901 52.4986 113.416 52.7826L109.275 53.6109V114.34C105.677 116.274 102.364 117.381 99.601 117.381C95.1753 117.381 94.0689 115.996 90.7556 111.86L63.675 69.3433V110.476L72.2423 112.417C72.2423 112.417 72.2423 117.387 65.3316 117.387L46.2682 118.487C45.7179 117.387 46.2682 114.624 48.2029 114.073L53.1729 112.695V58.3028L46.28 57.7467C45.7238 55.2617 47.1083 51.6762 50.9719 51.3981L71.4199 50.0195L99.6069 93.0869V54.9836L92.4182 54.1612C91.8679 51.12 94.0748 48.9131 96.8379 48.6409L115.901 47.5286ZM11.4545 6.12375L90.2053 0.325414C99.8732 -0.502919 102.364 0.0473305 108.44 4.46708L133.58 22.1342C137.722 25.1695 139.107 25.9978 139.107 29.3112V126.214C139.107 132.285 136.9 135.882 129.167 136.426L37.7067 141.953C31.9084 142.231 29.1394 141.402 26.0982 137.533L7.58498 113.511C4.27165 109.091 2.89307 105.784 2.89307 101.915V15.7797C2.89307 10.8157 5.1059 6.66808 11.4545 6.12375Z" fill="white"/>
</g>
<defs>
<clipPath id="clip0_10_356">
<rect width="142" height="142" fill="white"/>
</clipPath>
</defs>
</svg>
