<svg width="140" height="140" viewBox="0 0 140 140" fill="none" xmlns="http://www.w3.org/2000/svg">
<g clip-path="url(#clip0_44_29)">
<path d="M70.0002 0C57.2898 0.000288045 44.8658 3.77542 34.3039 10.8466C23.742 17.9178 15.5181 27.9664 10.6752 39.7181C5.83231 51.4697 4.58863 64.395 7.10188 76.8544C9.61513 89.3139 15.7721 100.746 24.7919 109.702L47.7927 130.941C53.7047 136.728 61.6423 139.978 69.9152 140C78.1882 140.022 86.1428 136.813 92.0852 131.057L115.372 109.538C124.345 100.564 130.456 89.1312 132.932 76.6844C135.408 64.2376 134.137 51.3361 129.281 39.6114C124.424 27.8867 116.2 17.8654 105.648 10.8147C95.0965 3.76393 82.6909 0.000402844 70.0002 0V0ZM107.287 101.132L84.0469 122.605C80.2256 126.205 75.1682 128.202 69.918 128.182C64.6679 128.163 59.6255 126.129 55.831 122.5L32.8769 101.29C26.772 95.1851 22.2669 87.6687 19.7608 79.4069C17.2546 71.145 16.8246 62.3925 18.509 53.9248C20.1934 45.457 23.94 37.5353 29.4172 30.8615C34.8943 24.1876 41.9328 18.9674 49.9093 15.6635C57.8857 12.3595 66.5539 11.0737 75.1459 11.9199C83.738 12.7661 91.9888 15.7183 99.1674 20.5148C106.346 25.3114 112.231 31.8043 116.301 39.4185C120.371 47.0326 122.5 55.533 122.5 64.1667C122.526 71.0269 121.195 77.8244 118.584 84.1684C115.973 90.5124 112.134 96.2776 107.287 101.132ZM97.4752 44.7008L79.9752 32.5617C77.0433 30.5357 73.564 29.4505 70.0002 29.4505C66.4364 29.4505 62.9571 30.5357 60.0252 32.5617L42.5252 44.7008C40.203 46.3118 38.3055 48.4613 36.9951 50.9654C35.6846 53.4695 35.0001 56.2537 35.0002 59.08V78.75C35.0002 82.6177 36.5367 86.3271 39.2716 89.062C42.0065 91.7969 45.7158 93.3333 49.5835 93.3333H90.4169C94.2846 93.3333 97.9939 91.7969 100.729 89.062C103.464 86.3271 105 82.6177 105 78.75V59.08C105 56.2537 104.316 53.4695 103.005 50.9654C101.695 48.4613 99.7974 46.3118 97.4752 44.7008ZM93.3335 78.75C93.3335 79.5236 93.0263 80.2654 92.4793 80.8124C91.9323 81.3594 91.1904 81.6667 90.4169 81.6667H81.6669V70C81.6669 68.4529 81.0523 66.9692 79.9583 65.8752C78.8644 64.7812 77.3806 64.1667 75.8335 64.1667H64.1669C62.6198 64.1667 61.136 64.7812 60.0421 65.8752C58.9481 66.9692 58.3335 68.4529 58.3335 70V81.6667H49.5835C48.81 81.6667 48.0681 81.3594 47.5211 80.8124C46.9742 80.2654 46.6669 79.5236 46.6669 78.75V59.08C46.6665 58.1376 46.8945 57.2091 47.3314 56.374C47.7682 55.539 48.4009 54.8222 49.1752 54.285L66.6752 42.1458C67.6535 41.4731 68.8129 41.113 70.0002 41.113C71.1875 41.113 72.3469 41.4731 73.3252 42.1458L90.8252 54.285C91.5995 54.8222 92.2322 55.539 92.669 56.374C93.1059 57.2091 93.3339 58.1376 93.3335 59.08V78.75Z" fill="white"/>
</g>
<defs>
<clipPath id="clip0_44_29">
<rect width="140" height="140" fill="white"/>
</clipPath>
</defs>
</svg>
