<svg width="107" height="103" viewBox="0 0 107 103" fill="none" xmlns="http://www.w3.org/2000/svg">
<g clip-path="url(#clip0_84_29)" filter="url(#filter0_d_84_29)">
<path d="M24.6251 78.375H49.3751V86.625H32.8751C31.7811 86.625 30.7319 87.0596 29.9583 87.8332C29.1847 88.6068 28.7501 89.656 28.7501 90.75C28.7501 91.844 29.1847 92.8932 29.9583 93.6668C30.7319 94.4404 31.7811 94.875 32.8751 94.875H74.1251C75.2191 94.875 76.2683 94.4404 77.0419 93.6668C77.8155 92.8932 78.2501 91.844 78.2501 90.75C78.2501 89.656 77.8155 88.6068 77.0419 87.8332C76.2683 87.0596 75.2191 86.625 74.1251 86.625H57.6251V78.375H82.3751C87.128 78.369 91.7334 76.7246 95.4153 73.719C99.0971 70.7135 101.63 66.5304 102.588 61.875H4.4126C5.37 66.5304 7.90309 70.7135 11.5849 73.719C15.2668 76.7246 19.8723 78.369 24.6251 78.375V78.375Z" fill="white"/>
<path d="M82.375 4.125H24.625C19.1569 4.13155 13.9147 6.30664 10.0482 10.1732C6.18164 14.0397 4.00655 19.2819 4 24.75L4 53.625H103V24.75C102.993 19.2819 100.818 14.0397 96.9518 10.1732C93.0853 6.30664 87.8431 4.13155 82.375 4.125V4.125Z" fill="white"/>
</g>
<defs>
<filter id="filter0_d_84_29" x="0" y="0" width="107" height="107" filterUnits="userSpaceOnUse" color-interpolation-filters="sRGB">
<feFlood flood-opacity="0" result="BackgroundImageFix"/>
<feColorMatrix in="SourceAlpha" type="matrix" values="0 0 0 0 0 0 0 0 0 0 0 0 0 0 0 0 0 0 127 0" result="hardAlpha"/>
<feOffset dy="4"/>
<feGaussianBlur stdDeviation="2"/>
<feComposite in2="hardAlpha" operator="out"/>
<feColorMatrix type="matrix" values="0 0 0 0 0 0 0 0 0 0 0 0 0 0 0 0 0 0 0.25 0"/>
<feBlend mode="normal" in2="BackgroundImageFix" result="effect1_dropShadow_84_29"/>
<feBlend mode="normal" in="SourceGraphic" in2="effect1_dropShadow_84_29" result="shape"/>
</filter>
<clipPath id="clip0_84_29">
<rect width="99" height="99" fill="white" transform="translate(4)"/>
</clipPath>
</defs>
</svg>
