<svg width="97" height="97" viewBox="0 0 97 97" fill="none" xmlns="http://www.w3.org/2000/svg">
<g clip-path="url(#clip0_1_84)">
<path d="M74.7708 0H22.2292C16.3356 0.00641885 10.6852 2.35048 6.51786 6.51786C2.35048 10.6852 0.00641885 16.3356 0 22.2292L0 54.5625C0.00641885 60.4561 2.35048 66.1064 6.51786 70.2738C10.6852 74.4412 16.3356 76.7852 22.2292 76.7917H42.4375V84.875H32.3333C30.7255 84.875 29.1834 85.5137 28.0465 86.6507C26.9096 87.7876 26.2708 89.3296 26.2708 90.9375C26.2708 92.5454 26.9096 94.0874 28.0465 95.2243C29.1834 96.3613 30.7255 97 32.3333 97H64.6667C66.2745 97 67.8166 96.3613 68.9535 95.2243C70.0904 94.0874 70.7292 92.5454 70.7292 90.9375C70.7292 89.3296 70.0904 87.7876 68.9535 86.6507C67.8166 85.5137 66.2745 84.875 64.6667 84.875H54.5625V76.7917H74.7708C80.6644 76.7852 86.3148 74.4412 90.4821 70.2738C94.6495 66.1064 96.9936 60.4561 97 54.5625V22.2292C96.9936 16.3356 94.6495 10.6852 90.4821 6.51786C86.3148 2.35048 80.6644 0.00641885 74.7708 0V0ZM22.2292 12.125H74.7708C77.4506 12.125 80.0207 13.1895 81.9156 15.0844C83.8105 16.9793 84.875 19.5494 84.875 22.2292V52.5417H12.125V22.2292C12.125 19.5494 13.1895 16.9793 15.0844 15.0844C16.9793 13.1895 19.5494 12.125 22.2292 12.125Z" fill="white"/>
</g>
<defs>
<clipPath id="clip0_1_84">
<rect width="97" height="97" fill="white"/>
</clipPath>
</defs>
</svg>
