<svg width="99" height="99" viewBox="0 0 99 99" fill="none" xmlns="http://www.w3.org/2000/svg">
<g clip-path="url(#clip0_1_82)">
<path d="M78.375 4.125H20.625C15.1569 4.13155 9.91468 6.30664 6.04816 10.1732C2.18164 14.0397 0.00654991 19.2819 0 24.75L0 57.75C0.00654991 63.2181 2.18164 68.4603 6.04816 72.3268C9.91468 76.1934 15.1569 78.3684 20.625 78.375H45.375V86.625H28.875C27.781 86.625 26.7318 87.0596 25.9582 87.8332C25.1846 88.6068 24.75 89.656 24.75 90.75C24.75 91.844 25.1846 92.8932 25.9582 93.6668C26.7318 94.4404 27.781 94.875 28.875 94.875H70.125C71.219 94.875 72.2682 94.4404 73.0418 93.6668C73.8154 92.8932 74.25 91.844 74.25 90.75C74.25 89.656 73.8154 88.6068 73.0418 87.8332C72.2682 87.0596 71.219 86.625 70.125 86.625H53.625V78.375H78.375C83.8431 78.3684 89.0853 76.1934 92.9518 72.3268C96.8184 68.4603 98.9934 63.2181 99 57.75V24.75C98.9934 19.2819 96.8184 14.0397 92.9518 10.1732C89.0853 6.30664 83.8431 4.13155 78.375 4.125ZM20.625 12.375H78.375C81.6571 12.375 84.8047 13.6788 87.1255 15.9996C89.4462 18.3203 90.75 21.4679 90.75 24.75V53.625H8.25V24.75C8.25 21.4679 9.55379 18.3203 11.8746 15.9996C14.1953 13.6788 17.3429 12.375 20.625 12.375ZM78.375 70.125H20.625C18.0747 70.1144 15.5899 69.3161 13.5106 67.8394C11.4313 66.3626 9.85909 64.2795 9.009 61.875H89.991C89.1409 64.2795 87.5687 66.3626 85.4894 67.8394C83.4101 69.3161 80.9253 70.1144 78.375 70.125Z" fill="white"/>
</g>
<defs>
<clipPath id="clip0_1_82">
<rect width="99" height="99" fill="white"/>
</clipPath>
</defs>
</svg>
