<svg width="122" height="122" viewBox="0 0 122 122" fill="none" xmlns="http://www.w3.org/2000/svg">
<g clip-path="url(#clip0_10_319)">
<path d="M45.75 0H15.25C11.2054 0 7.32655 1.60669 4.46662 4.46662C1.60669 7.32655 0 11.2054 0 15.25L0 45.75H25.4167V55.9167H15.25V66.0833H45.75V55.9167H35.5833V45.75H61V15.25C61 11.2054 59.3933 7.32655 56.5334 4.46662C53.6735 1.60669 49.7946 0 45.75 0V0ZM50.8333 35.5833H10.1667V15.25C10.1667 13.9018 10.7022 12.6089 11.6555 11.6555C12.6089 10.7022 13.9018 10.1667 15.25 10.1667H45.75C47.0982 10.1667 48.3912 10.7022 49.3445 11.6555C50.2978 12.6089 50.8333 13.9018 50.8333 15.25V35.5833ZM106.75 55.9167H86.4167C82.3721 55.9167 78.4932 57.5234 75.6333 60.3833C72.7734 63.2432 71.1667 67.1221 71.1667 71.1667V122H122V71.1667C122 67.1221 120.393 63.2432 117.533 60.3833C114.673 57.5234 110.795 55.9167 106.75 55.9167ZM111.833 111.833H81.3333V71.1667C81.3333 69.8185 81.8689 68.5255 82.8222 67.5722C83.7755 66.6189 85.0685 66.0833 86.4167 66.0833H106.75C108.098 66.0833 109.391 66.6189 110.344 67.5722C111.298 68.5255 111.833 69.8185 111.833 71.1667V111.833ZM86.4167 25.4167H71.1667V15.25H86.4167C90.4612 15.25 94.3401 16.8567 97.2001 19.7166C100.06 22.5766 101.667 26.4555 101.667 30.5V45.75H91.5V30.5C91.5 29.1518 90.9644 27.8589 90.0111 26.9055C89.0578 25.9522 87.7649 25.4167 86.4167 25.4167ZM40.6667 96.5833H61V106.75H40.6667C36.6221 106.75 32.7432 105.143 29.8833 102.283C27.0234 99.4235 25.4167 95.5446 25.4167 91.5V76.25H35.5833V91.5C35.5833 92.8482 36.1189 94.1412 37.0722 95.0945C38.0255 96.0478 39.3185 96.5833 40.6667 96.5833ZM101.667 101.667C101.667 102.672 101.369 103.655 100.81 104.491C100.251 105.327 99.4575 105.978 98.5286 106.363C97.5998 106.748 96.5777 106.848 95.5916 106.652C94.6056 106.456 93.6998 105.972 92.9889 105.261C92.278 104.55 91.7938 103.644 91.5977 102.658C91.4015 101.672 91.5022 100.65 91.8869 99.7214C92.2717 98.7925 92.9232 97.9986 93.7592 97.44C94.5951 96.8815 95.5779 96.5833 96.5833 96.5833C97.9315 96.5833 99.2245 97.1189 100.178 98.0722C101.131 99.0255 101.667 100.318 101.667 101.667Z" fill="white"/>
</g>
<defs>
<clipPath id="clip0_10_319">
<rect width="122" height="122" fill="white"/>
</clipPath>
</defs>
</svg>
