<svg width="140" height="140" viewBox="0 0 140 140" fill="none" xmlns="http://www.w3.org/2000/svg">
<g clip-path="url(#clip0_44_33)">
<path d="M52.5 140H5.83333C4.28624 140 2.80251 139.385 1.70854 138.292C0.614582 137.198 0 135.714 0 134.167C0 132.62 0.614582 131.136 1.70854 130.042C2.80251 128.948 4.28624 128.333 5.83333 128.333H52.5C54.0471 128.333 55.5308 128.948 56.6248 130.042C57.7188 131.136 58.3333 132.62 58.3333 134.167C58.3333 135.714 57.7188 137.198 56.6248 138.292C55.5308 139.385 54.0471 140 52.5 140Z" fill="white"/>
<path d="M40.8333 116.667H5.83333C4.28624 116.667 2.80251 116.052 1.70854 114.958C0.614582 113.864 0 112.38 0 110.833C0 109.286 0.614582 107.803 1.70854 106.709C2.80251 105.615 4.28624 105 5.83333 105H40.8333C42.3804 105 43.8642 105.615 44.9581 106.709C46.0521 107.803 46.6667 109.286 46.6667 110.833C46.6667 112.38 46.0521 113.864 44.9581 114.958C43.8642 116.052 42.3804 116.667 40.8333 116.667Z" fill="white"/>
<path d="M29.1667 93.3333H5.83333C4.28624 93.3333 2.80251 92.7187 1.70854 91.6247C0.614582 90.5308 0 89.0471 0 87.5C0 85.9529 0.614582 84.4691 1.70854 83.3752C2.80251 82.2812 4.28624 81.6666 5.83333 81.6666H29.1667C30.7138 81.6666 32.1975 82.2812 33.2915 83.3752C34.3854 84.4691 35 85.9529 35 87.5C35 89.0471 34.3854 90.5308 33.2915 91.6247C32.1975 92.7187 30.7138 93.3333 29.1667 93.3333Z" fill="white"/>
<path d="M75.8334 139.738C74.2863 139.806 72.7752 139.258 71.6326 138.213C70.4899 137.167 69.8093 135.711 69.7405 134.164C69.6716 132.617 70.2202 131.106 71.2655 129.963C72.3108 128.82 73.7671 128.14 75.3142 128.071C86.3536 127.061 96.8765 122.926 105.651 116.151C114.425 109.376 121.087 100.241 124.856 89.816C128.626 79.3911 129.347 68.108 126.935 57.2881C124.523 46.4682 119.078 36.5596 111.237 28.7228C103.397 20.886 93.4859 15.4455 82.6649 13.0385C71.8439 10.6316 60.5611 11.3578 50.138 15.1321C39.7148 18.9064 30.5829 25.5726 23.8119 34.3498C17.0408 43.127 12.9109 53.6519 11.9059 64.6917C11.7667 66.2326 11.021 67.6551 9.83296 68.6462C8.64491 69.6374 7.1118 70.116 5.5709 69.9767C4.02999 69.8375 2.6075 69.0918 1.61637 67.9038C0.625244 66.7157 0.146656 65.1826 0.285895 63.6417C1.91275 45.6944 10.3986 29.0658 23.977 17.2175C37.5554 5.36924 55.1801 -0.785899 73.1824 0.0333791C91.1848 0.852657 108.178 8.58323 120.624 21.6159C133.07 34.6485 140.01 51.9791 140 70.0001C140.089 87.4904 133.592 104.373 121.799 117.291C110.007 130.208 93.7845 138.214 76.3584 139.714C76.1834 139.732 76.0026 139.738 75.8334 139.738Z" fill="white"/>
<path d="M69.9998 35C68.4527 35 66.969 35.6146 65.875 36.7085C64.7811 37.8025 64.1665 39.2862 64.1665 40.8333V70C64.1668 71.547 64.7816 73.0305 65.8757 74.1242L83.3757 91.6242C84.4759 92.6868 85.9494 93.2747 87.4788 93.2614C89.0083 93.2481 90.4714 92.6347 91.5529 91.5531C92.6345 90.4716 93.248 89.0085 93.2613 87.479C93.2746 85.9495 92.6866 84.476 91.624 83.3758L75.8332 67.585V40.8333C75.8332 39.2862 75.2186 37.8025 74.1246 36.7085C73.0307 35.6146 71.5469 35 69.9998 35Z" fill="white"/>
</g>
<defs>
<clipPath id="clip0_44_33">
<rect width="140" height="140" fill="white"/>
</clipPath>
</defs>
</svg>
