<svg width="140" height="140" viewBox="0 0 140 140" fill="none" xmlns="http://www.w3.org/2000/svg">
<g clip-path="url(#clip0_12_435)">
<path d="M110.833 17.5H29.1667C21.434 17.5093 14.0208 20.5851 8.55295 26.0529C3.08514 31.5208 0.0092625 38.934 0 46.6667L0 81.6667C0.0092625 89.3993 3.08514 96.8126 8.55295 102.28C14.0208 107.748 21.434 110.824 29.1667 110.833H64.1667V116.667H46.6667C45.1196 116.667 43.6358 117.281 42.5419 118.375C41.4479 119.469 40.8333 120.953 40.8333 122.5C40.8333 124.047 41.4479 125.531 42.5419 126.625C43.6358 127.719 45.1196 128.333 46.6667 128.333H93.3333C94.8804 128.333 96.3642 127.719 97.4581 126.625C98.5521 125.531 99.1667 124.047 99.1667 122.5C99.1667 120.953 98.5521 119.469 97.4581 118.375C96.3642 117.281 94.8804 116.667 93.3333 116.667H75.8333V110.833H110.833C118.566 110.824 125.979 107.748 131.447 102.28C136.915 96.8126 139.991 89.3993 140 81.6667V46.6667C139.991 38.934 136.915 31.5208 131.447 26.0529C125.979 20.5851 118.566 17.5093 110.833 17.5ZM128.333 81.6667C128.333 86.308 126.49 90.7592 123.208 94.041C119.926 97.3229 115.475 99.1667 110.833 99.1667H29.1667C24.5254 99.1667 20.0742 97.3229 16.7923 94.041C13.5104 90.7592 11.6667 86.308 11.6667 81.6667V46.6667C11.6667 42.0254 13.5104 37.5742 16.7923 34.2923C20.0742 31.0104 24.5254 29.1667 29.1667 29.1667H110.833C115.475 29.1667 119.926 31.0104 123.208 34.2923C126.49 37.5742 128.333 42.0254 128.333 46.6667V81.6667Z" fill="white"/>
</g>
<defs>
<clipPath id="clip0_12_435">
<rect width="140" height="140" fill="white"/>
</clipPath>
</defs>
</svg>
