<svg width="140" height="140" viewBox="0 0 140 140" fill="none" xmlns="http://www.w3.org/2000/svg">
<g clip-path="url(#clip0_44_25)">
<path d="M138.291 95.2292C137.197 94.1356 135.713 93.5212 134.166 93.5212C132.62 93.5212 131.136 94.1356 130.042 95.2292L97.2181 128.059L81.5381 112.583C80.4552 111.473 78.9756 110.839 77.4249 110.82C75.8742 110.801 74.3794 111.398 73.2694 112.481C72.1593 113.564 71.525 115.044 71.5058 116.594C71.4867 118.145 72.0843 119.64 73.1673 120.75L89.174 136.5C90.178 137.582 91.3907 138.451 92.7391 139.052C94.0874 139.654 95.5435 139.976 97.0198 140H97.2123C98.6593 140.005 100.093 139.722 101.43 139.168C102.766 138.615 103.98 137.801 105 136.774L138.291 103.477C139.384 102.384 139.999 100.9 139.999 99.3533C139.999 97.8065 139.384 96.3231 138.291 95.2292Z" fill="white"/>
<path d="M64.6917 128.094C53.4277 127.065 42.706 122.783 33.8317 115.77C24.9575 108.757 18.3135 99.3151 14.7086 88.5941C11.1037 77.8731 10.6935 66.3353 13.5278 55.3853C16.3622 44.4353 22.3188 34.5455 30.6726 26.9199C39.0264 19.2943 49.4169 14.2619 60.5793 12.4352C71.7417 10.6085 83.1944 12.0664 93.5431 16.6314C103.892 21.1965 112.69 28.6717 118.867 38.147C125.044 47.6223 128.333 58.6891 128.333 69.9999C128.333 71.7907 128.246 73.5641 128.094 75.3141C128.023 76.0789 128.103 76.8503 128.331 77.584C128.558 78.3177 128.928 78.9992 129.42 79.5894C129.912 80.1797 130.515 80.667 131.195 81.0235C131.876 81.3799 132.62 81.5985 133.385 81.6666C134.15 81.7435 134.922 81.6669 135.656 81.4413C136.391 81.2157 137.073 80.8456 137.663 80.3527C138.252 79.8598 138.737 79.2542 139.09 78.5712C139.442 77.8883 139.654 77.1419 139.714 76.3757C139.901 74.2582 140 72.1407 140 69.9999C139.999 56.4264 136.052 43.1459 128.64 31.7752C121.227 20.4046 110.668 11.4343 98.249 5.95663C85.8298 0.478948 72.086 -1.26988 58.6908 0.92306C45.2956 3.116 32.8269 9.15612 22.8027 18.308C12.7786 27.4599 5.63149 39.3288 2.23155 52.4696C-1.1684 65.6104 -0.674495 79.4563 3.65312 92.3214C7.98074 105.187 15.9554 116.516 26.6061 124.93C37.2569 133.345 50.1243 138.481 63.6417 139.714H64.1725C65.7196 139.783 67.2307 139.234 68.3733 138.189C69.516 137.144 70.1966 135.687 70.2654 134.14C70.3343 132.593 69.7857 131.082 68.7404 129.94C67.6952 128.797 66.2388 128.116 64.6917 128.047V128.094Z" fill="white"/>
<path d="M64.1669 40.8333V67.585L48.3761 83.3758C47.8189 83.9139 47.3745 84.5576 47.0688 85.2693C46.7631 85.981 46.6022 86.7465 46.5954 87.521C46.5887 88.2955 46.7363 89.0637 47.0296 89.7806C47.3229 90.4975 47.7561 91.1488 48.3038 91.6965C48.8515 92.2442 49.5028 92.6773 50.2197 92.9706C50.9366 93.2639 51.7047 93.4115 52.4792 93.4048C53.2538 93.3981 54.0192 93.2371 54.7309 92.9314C55.4426 92.6257 56.0863 92.1813 56.6244 91.6242L74.1244 74.1242C75.2184 73.0305 75.8332 71.547 75.8336 70V40.8333C75.8336 39.2862 75.219 37.8025 74.125 36.7085C73.0311 35.6146 71.5473 35 70.0002 35C68.4531 35 66.9694 35.6146 65.8754 36.7085C64.7815 37.8025 64.1669 39.2862 64.1669 40.8333Z" fill="white"/>
</g>
<defs>
<clipPath id="clip0_44_25">
<rect width="140" height="140" fill="white"/>
</clipPath>
</defs>
</svg>
