<svg width="144" height="144" viewBox="0 0 144 144" fill="none" xmlns="http://www.w3.org/2000/svg">
<path d="M30.318 90.948C30.318 99.318 23.532 106.104 15.162 106.104C6.786 106.104 0 99.318 0 90.948C0 82.578 6.786 75.792 15.156 75.792H30.312V90.948H30.318Z" fill="white"/>
<path d="M37.896 90.948C37.896 82.578 44.682 75.792 53.052 75.792C61.422 75.792 68.208 82.578 68.208 90.948V128.844C68.208 137.214 61.422 144 53.052 144C44.682 144 37.896 137.214 37.896 128.844V90.948Z" fill="white"/>
<path d="M53.052 30.318C44.682 30.318 37.896 23.532 37.896 15.162C37.896 6.786 44.682 0 53.052 0C61.422 0 68.208 6.786 68.208 15.156V30.312H53.052V30.318Z" fill="white"/>
<path d="M53.052 37.896C61.422 37.896 68.208 44.682 68.208 53.052C68.208 61.422 61.422 68.208 53.052 68.208H15.156C6.786 68.208 0 61.422 0 53.052C0 44.682 6.786 37.896 15.156 37.896H53.052Z" fill="white"/>
<path d="M113.682 53.052C113.682 44.682 120.468 37.896 128.838 37.896C137.214 37.896 144 44.682 144 53.052C144 61.422 137.214 68.208 128.844 68.208H113.688V53.052H113.682Z" fill="white"/>
<path d="M106.104 53.052C106.104 61.422 99.318 68.208 90.948 68.208C82.578 68.208 75.792 61.422 75.792 53.052V15.156C75.792 6.786 82.578 0 90.948 0C99.318 0 106.104 6.786 106.104 15.156V53.052Z" fill="white"/>
<path d="M90.948 113.682C99.318 113.682 106.104 120.468 106.104 128.838C106.104 137.208 99.318 143.994 90.948 143.994C82.578 143.994 75.792 137.208 75.792 128.838V113.682H90.948Z" fill="white"/>
<path d="M90.948 106.104C82.578 106.104 75.792 99.318 75.792 90.948C75.792 82.578 82.578 75.792 90.948 75.792H128.844C137.214 75.792 144 82.578 144 90.948C144 99.318 137.214 106.104 128.844 106.104H90.948Z" fill="white"/>
</svg>
