<svg width="140" height="140" viewBox="0 0 140 140" fill="none" xmlns="http://www.w3.org/2000/svg">
<g clip-path="url(#clip0_44_31)">
<path d="M43.75 75.8333C38.5582 75.8333 33.4831 74.2938 29.1663 71.4094C24.8495 68.525 21.485 64.4253 19.4982 59.6288C17.5114 54.8322 16.9915 49.5542 18.0044 44.4622C19.0173 39.3702 21.5173 34.6929 25.1884 31.0218C28.8596 27.3507 33.5369 24.8506 38.6289 23.8377C43.7209 22.8249 48.9989 23.3447 53.7954 25.3315C58.592 27.3183 62.6917 30.6828 65.5761 34.9996C68.4605 39.3164 70 44.3916 70 49.5833C69.9923 56.5429 67.2242 63.2152 62.303 68.1364C57.3819 73.0575 50.7096 75.8256 43.75 75.8333ZM43.75 35C40.8657 35 38.0462 35.8553 35.6479 37.4577C33.2497 39.0602 31.3805 41.3378 30.2768 44.0025C29.173 46.6673 28.8842 49.5995 29.4469 52.4284C30.0096 55.2573 31.3985 57.8558 33.438 59.8953C35.4775 61.9348 38.076 63.3238 40.9049 63.8865C43.7338 64.4492 46.666 64.1604 49.3308 63.0566C51.9956 61.9528 54.2732 60.0836 55.8756 57.6854C57.478 55.2872 58.3333 52.4677 58.3333 49.5833C58.3333 45.7156 56.7969 42.0063 54.062 39.2714C51.3271 36.5365 47.6177 35 43.75 35ZM87.5 134.167V131.25C87.5 119.647 82.8906 108.519 74.6859 100.314C66.4812 92.1094 55.3532 87.5 43.75 87.5C32.1468 87.5 21.0188 92.1094 12.8141 100.314C4.60936 108.519 0 119.647 0 131.25L0 134.167C0 135.714 0.614582 137.198 1.70854 138.291C2.80251 139.385 4.28624 140 5.83333 140C7.38043 140 8.86416 139.385 9.95812 138.291C11.0521 137.198 11.6667 135.714 11.6667 134.167V131.25C11.6667 122.741 15.0469 114.58 21.0637 108.564C27.0805 102.547 35.241 99.1667 43.75 99.1667C52.259 99.1667 60.4196 102.547 66.4363 108.564C72.4531 114.58 75.8333 122.741 75.8333 131.25V134.167C75.8333 135.714 76.4479 137.198 77.5419 138.291C78.6358 139.385 80.1196 140 81.6667 140C83.2138 140 84.6975 139.385 85.7915 138.291C86.8854 137.198 87.5 135.714 87.5 134.167ZM140 105C140 97.1173 137.718 89.4032 133.43 82.7888C129.142 76.1744 123.031 70.9426 115.835 67.7248C108.639 64.507 100.665 63.4409 92.8769 64.6551C85.0883 65.8694 77.8176 69.312 71.9425 74.5675C71.3636 75.0762 70.8913 75.6945 70.5528 76.3867C70.2142 77.079 70.0162 77.8315 69.9701 78.6007C69.9241 79.3699 70.0309 80.1406 70.2843 80.8683C70.5378 81.596 70.933 82.2663 71.447 82.8404C71.961 83.4146 72.5837 83.8811 73.2791 84.2132C73.9744 84.5453 74.7287 84.7364 75.4983 84.7753C76.2679 84.8142 77.0376 84.7003 77.7629 84.4401C78.4883 84.1799 79.1548 83.7785 79.7242 83.2592C83.921 79.5061 89.1143 77.048 94.6774 76.1814C100.24 75.3148 105.935 76.0768 111.075 78.3755C116.214 80.6742 120.579 84.4113 123.641 89.1357C126.704 93.8601 128.333 99.3699 128.333 105C128.333 106.547 128.948 108.031 130.042 109.125C131.136 110.219 132.62 110.833 134.167 110.833C135.714 110.833 137.198 110.219 138.291 109.125C139.385 108.031 140 106.547 140 105ZM102.083 52.5C96.8916 52.5 91.8164 50.9605 87.4996 48.0761C83.1828 45.1917 79.8183 41.092 77.8315 36.2955C75.8447 31.4989 75.3249 26.2209 76.3377 21.1289C77.3506 16.0369 79.8507 11.3596 83.5218 7.68846C87.1929 4.01733 91.8702 1.51726 96.9622 0.504398C102.054 -0.508464 107.332 0.0113738 112.129 1.99817C116.925 3.98497 121.025 7.3495 123.909 11.6663C126.794 15.9831 128.333 21.0583 128.333 26.25C128.326 33.2096 125.558 39.8819 120.636 44.803C115.715 49.7242 109.043 52.4923 102.083 52.5ZM102.083 11.6667C99.199 11.6667 96.3795 12.522 93.9813 14.1244C91.5831 15.7269 89.7139 18.0045 88.6101 20.6692C87.5063 23.334 87.2175 26.2662 87.7802 29.0951C88.3429 31.924 89.7318 34.5225 91.7714 36.562C93.8109 38.6015 96.4094 39.9904 99.2383 40.5531C102.067 41.1158 104.999 40.827 107.664 39.7233C110.329 38.6195 112.606 36.7503 114.209 34.3521C115.811 31.9539 116.667 29.1343 116.667 26.25C116.667 22.3823 115.13 18.6729 112.395 15.938C109.66 13.2031 105.951 11.6667 102.083 11.6667Z" fill="white"/>
</g>
<defs>
<clipPath id="clip0_44_31">
<rect width="140" height="140" fill="white"/>
</clipPath>
</defs>
</svg>
