<svg width="140" height="140" viewBox="0 0 140 140" fill="none" xmlns="http://www.w3.org/2000/svg">
<g clip-path="url(#clip0_23_2)">
<path d="M139.043 51.2985C137.85 47.5004 135.466 44.1871 132.244 41.8487C129.022 39.5102 125.133 38.2707 121.152 38.3135H95.6667L87.9258 14.1868C86.7085 10.3891 84.3166 7.07605 81.0948 4.72552C77.8731 2.37499 73.9881 1.1084 70 1.1084C66.0119 1.1084 62.1269 2.37499 58.9052 4.72552C55.6834 7.07605 53.2915 10.3891 52.0742 14.1868L44.3333 38.3135H18.8475C14.8793 38.3191 11.0145 39.5786 7.80488 41.9121C4.59531 44.2455 2.20524 47.5336 0.976041 51.3066C-0.253155 55.0796 -0.258595 59.1445 0.960497 62.9207C2.17959 66.697 4.56085 69.9914 7.76417 72.3335L28.5075 87.5001L20.6208 111.924C19.3463 115.712 19.3302 119.811 20.5748 123.609C21.8194 127.407 24.2582 130.701 27.5275 133C30.7408 135.373 34.6348 136.644 38.6292 136.624C42.6237 136.604 46.5047 135.294 49.6942 132.889L70 117.944L90.3117 132.872C93.5191 135.231 97.3921 136.513 101.374 136.532C105.356 136.551 109.241 135.308 112.471 132.98C115.701 130.652 118.11 127.36 119.352 123.576C120.593 119.793 120.603 115.713 119.379 111.924L111.492 87.5001L132.259 72.3335C135.499 70.0208 137.908 66.7265 139.13 62.938C140.352 59.1495 140.322 55.0683 139.043 51.2985ZM125.376 62.9126L101.202 80.5818C100.21 81.3061 99.4708 82.3255 99.0916 83.4946C98.7124 84.6636 98.7121 85.9226 99.0908 87.0918L108.278 115.5C108.743 116.941 108.739 118.492 108.267 119.931C107.795 121.369 106.878 122.621 105.65 123.506C104.422 124.391 102.944 124.863 101.43 124.855C99.9161 124.848 98.4435 124.36 97.2242 123.463L73.4533 105.963C72.4521 105.227 71.2423 104.831 70 104.831C68.7577 104.831 67.5479 105.227 66.5467 105.963L42.7758 123.463C41.5571 124.372 40.0805 124.87 38.5599 124.884C37.0393 124.897 35.5538 124.427 34.3188 123.539C33.0838 122.652 32.1635 121.395 31.6913 119.949C31.2191 118.504 31.2195 116.945 31.6925 115.5L40.9092 87.0918C41.2878 85.9226 41.2876 84.6636 40.9084 83.4946C40.5291 82.3255 39.7904 81.3061 38.7975 80.5818L14.6242 62.9126C13.4068 62.0213 12.5022 60.768 12.0397 59.3318C11.5771 57.8956 11.5803 56.35 12.0487 54.9157C12.517 53.4814 13.4267 52.2318 14.6477 51.3454C15.8688 50.4591 17.3387 49.9812 18.8475 49.9801H48.5975C49.8325 49.9801 51.0356 49.5881 52.0336 48.8606C53.0316 48.1331 53.7729 47.1076 54.1508 45.9318L63.1925 17.751C63.6566 16.3089 64.5663 15.0513 65.7907 14.1591C67.015 13.2669 68.4909 12.7863 70.0058 12.7863C71.5208 12.7863 72.9966 13.2669 74.221 14.1591C75.4453 15.0513 76.355 16.3089 76.8192 17.751L85.8608 45.9318C86.2387 47.1076 86.9801 48.1331 87.978 48.8606C88.976 49.5881 90.1791 49.9801 91.4142 49.9801H121.164C122.673 49.9812 124.143 50.4591 125.364 51.3454C126.585 52.2318 127.495 53.4814 127.963 54.9157C128.431 56.35 128.435 57.8956 127.972 59.3318C127.509 60.768 126.605 62.0213 125.387 62.9126H125.376Z" fill="white"/>
</g>
<defs>
<clipPath id="clip0_23_2">
<rect width="140" height="140" fill="white"/>
</clipPath>
</defs>
</svg>
