<svg width="140" height="140" viewBox="0 0 140 140" fill="none" xmlns="http://www.w3.org/2000/svg">
<g clip-path="url(#clip0_44_23)">
<path d="M70 0C56.1553 0 42.6216 4.10543 31.1101 11.7971C19.5987 19.4888 10.6266 30.4213 5.32846 43.2122C0.03033 56.003 -1.3559 70.0777 1.34506 83.6563C4.04603 97.235 10.7129 109.708 20.5026 119.497C30.2922 129.287 42.765 135.954 56.3437 138.655C69.9224 141.356 83.997 139.97 96.7879 134.672C109.579 129.373 120.511 120.401 128.203 108.89C135.895 97.3785 140 83.8447 140 70C139.98 51.441 132.599 33.6479 119.475 20.5247C106.352 7.4015 88.559 0.020073 70 0V0ZM70 11.6667C83.4556 11.6539 96.4976 16.3161 106.896 24.8558L24.8559 106.896C17.8619 98.3532 13.4376 88.0002 12.0974 77.0413C10.7573 66.0825 12.5566 54.9684 17.2859 44.9922C22.0152 35.0159 29.4802 26.5877 38.8122 20.6881C48.1442 14.7884 58.9596 11.66 70 11.6667ZM70 128.333C56.5441 128.349 43.5012 123.686 33.1042 115.144L115.144 33.1042C122.138 41.6468 126.562 51.9998 127.903 62.9587C129.243 73.9175 127.443 85.0316 122.714 95.0078C117.985 104.984 110.52 113.412 101.188 119.312C91.8559 125.212 81.0405 128.34 70 128.333Z" fill="white"/>
</g>
<defs>
<clipPath id="clip0_44_23">
<rect width="140" height="140" fill="white"/>
</clipPath>
</defs>
</svg>
