<svg width="130" height="130" viewBox="0 0 130 130" fill="none" xmlns="http://www.w3.org/2000/svg">
<g clip-path="url(#clip0_10_393)">
<path fill-rule="evenodd" clip-rule="evenodd" d="M114.568 0.0432129H15.4537C11.3587 0.0432129 7.43167 1.66821 4.53375 4.56071C1.63583 7.45321 0.00541667 11.3803 0 15.4753C0 15.4753 0 114.329 0 114.443C0 118.522 1.625 122.519 4.50125 125.412C7.36125 128.283 11.4075 129.962 15.4537 129.962C15.4537 129.962 114.438 129.962 114.568 129.962C118.62 129.962 122.655 128.272 125.504 125.407C128.37 122.525 130.016 118.506 130 114.449V15.4753C129.995 11.3857 128.364 7.46405 125.472 4.57155C122.579 1.67363 118.657 0.0486296 114.568 0.0432129ZM56.0679 93.6161C56.0679 94.9866 55.5046 96.3082 54.535 97.2724C53.5546 98.242 52.2383 98.762 50.8625 98.762H29.2012C27.8417 98.7566 26.5362 98.2149 25.5775 97.2453C24.6187 96.2811 24.0771 94.9757 24.0771 93.6161V29.1578C24.0771 27.7982 24.6187 26.4928 25.5775 25.5286C26.5362 24.5645 27.8417 24.0228 29.2012 24.012H50.8625C52.2275 24.0174 53.5275 24.559 54.4917 25.5232C55.4558 26.4874 55.9975 27.7928 56.0029 29.1524C56.0029 29.1578 56.0679 93.6107 56.0679 93.6161ZM106.047 64.0195C106.053 65.3899 105.495 66.717 104.52 67.6811C103.567 68.6236 102.18 69.1815 100.842 69.1653H79.1808C77.8158 69.1599 76.5104 68.6182 75.5517 67.654C74.5875 66.6899 74.0458 65.3845 74.0404 64.0249V29.1578C74.0458 27.7928 74.5875 26.4874 75.5517 25.5286C76.5158 24.5645 77.8213 24.0228 79.1808 24.0174H100.842C102.202 24.0228 103.507 24.5699 104.466 25.534C105.425 26.4982 105.966 27.8036 105.966 29.1632C105.966 29.1578 106.047 64.0195 106.047 64.0195Z" fill="white"/>
</g>
<defs>
<clipPath id="clip0_10_393">
<rect width="130" height="130" fill="white"/>
</clipPath>
</defs>
</svg>
