<svg width="144" height="144" viewBox="0 0 144 144" fill="none" xmlns="http://www.w3.org/2000/svg">
<g clip-path="url(#clip0_10_221)">
<path d="M67.146 54C67.5229 52.4291 68.0286 50.8919 68.658 49.404L72.108 42.246L75.336 49.398C75.9664 50.8881 76.4741 52.4272 76.854 54H67.146ZM126 18V144H18V18C18 13.2261 19.8964 8.64773 23.2721 5.27208C26.6477 1.89642 31.2261 0 36 0L108 0C112.774 0 117.352 1.89642 120.728 5.27208C124.104 8.64773 126 13.2261 126 18ZM54 72H66V66H78V72H90V61.758C90.0071 55.7921 88.7367 49.8939 86.274 44.46L83.142 37.548C82.2626 35.3368 80.7456 33.4369 78.7838 32.09C76.822 30.743 74.504 30.0098 72.1245 29.9834C69.7449 29.957 67.4113 30.6388 65.4201 31.9419C63.429 33.2451 61.8702 35.1108 60.942 37.302L57.726 44.466C55.2628 49.8976 53.9922 55.794 54 61.758V72ZM78 120H66V132H78V120ZM96 84H48V96H96V84Z" fill="white"/>
</g>
<defs>
<clipPath id="clip0_10_221">
<rect width="144" height="144" fill="white"/>
</clipPath>
</defs>
</svg>
