<svg width="114" height="114" viewBox="0 0 114 114" fill="none" xmlns="http://www.w3.org/2000/svg">
<g clip-path="url(#clip0_1_73)">
<path d="M57 57C62.6368 57 68.147 55.3285 72.8338 52.1969C77.5206 49.0653 81.1735 44.6142 83.3306 39.4065C85.4877 34.1988 86.0521 28.4684 84.9524 22.9399C83.8527 17.4115 81.1383 12.3333 77.1525 8.34747C73.1668 4.36167 68.0885 1.64731 62.5601 0.547632C57.0316 -0.552046 51.3012 0.0123487 46.0935 2.16945C40.8858 4.32654 36.4347 7.97946 33.3031 12.6663C30.1715 17.3531 28.5 22.8632 28.5 28.5C28.5075 36.0564 31.5126 43.3011 36.8558 48.6442C42.1989 53.9874 49.4436 56.9925 57 57ZM57 9.50001C60.7578 9.50001 64.4313 10.6143 67.5558 12.7021C70.6804 14.7898 73.1156 17.7572 74.5537 21.229C75.9918 24.7008 76.368 28.5211 75.6349 32.2067C74.9018 35.8924 73.0922 39.2778 70.435 41.935C67.7778 44.5922 64.3924 46.4018 60.7067 47.1349C57.0211 47.8681 53.2008 47.4918 49.729 46.0537C46.2572 44.6157 43.2898 42.1804 41.2021 39.0558C39.1143 35.9313 38 32.2579 38 28.5C38 23.4609 40.0018 18.6282 43.565 15.065C47.1282 11.5018 51.9609 9.50001 57 9.50001Z" fill="white"/>
<path d="M57 66.5C45.6659 66.5126 34.7995 71.0206 26.7851 79.0351C18.7706 87.0495 14.2626 97.9159 14.25 109.25C14.25 110.51 14.7504 111.718 15.6412 112.609C16.532 113.5 17.7402 114 19 114C20.2598 114 21.468 113.5 22.3588 112.609C23.2496 111.718 23.75 110.51 23.75 109.25C23.75 100.432 27.2531 91.9743 33.4887 85.7387C39.7243 79.5031 48.1816 76 57 76C65.8184 76 74.2757 79.5031 80.5113 85.7387C86.7469 91.9743 90.25 100.432 90.25 109.25C90.25 110.51 90.7504 111.718 91.6412 112.609C92.532 113.5 93.7402 114 95 114C96.2598 114 97.468 113.5 98.3588 112.609C99.2496 111.718 99.75 110.51 99.75 109.25C99.7374 97.9159 95.2294 87.0495 87.2149 79.0351C79.2005 71.0206 68.3341 66.5126 57 66.5Z" fill="white"/>
</g>
<defs>
<clipPath id="clip0_1_73">
<rect width="114" height="114" fill="white"/>
</clipPath>
</defs>
</svg>
