<svg width="84" height="84" viewBox="0 0 84 84" fill="none" xmlns="http://www.w3.org/2000/svg">
<path d="M62.1556 48.2675C61.992 48.189 55.8682 45.1734 54.78 44.7818C54.3357 44.6223 53.8598 44.4665 53.3536 44.4665C52.5267 44.4665 51.8321 44.8786 51.291 45.6881C50.6793 46.5973 48.8275 48.762 48.2553 49.4086C48.1806 49.494 48.0785 49.596 48.0175 49.596C47.9626 49.596 47.0149 49.2057 46.728 49.0811C40.1588 46.2275 35.1725 39.3654 34.4888 38.2083C34.3912 38.0419 34.3871 37.9663 34.3863 37.9663C34.4103 37.8783 34.6312 37.6568 34.7452 37.5425C35.0787 37.2125 35.4401 36.7775 35.7897 36.3567C35.9553 36.1573 36.1211 35.9577 36.2839 35.7695C36.7912 35.1793 37.017 34.7212 37.2788 34.1904L37.416 33.9147C38.0553 32.6446 37.5093 31.5728 37.3328 31.2267C37.188 30.9371 34.6023 24.6965 34.3274 24.0409C33.6663 22.4588 32.7927 21.7222 31.5788 21.7222C31.4662 21.7222 31.5788 21.7222 31.1065 21.7421C30.5313 21.7663 27.399 22.1787 26.0141 23.0517C24.5455 23.9776 22.0609 26.9291 22.0609 32.1196C22.0609 36.7912 25.0255 41.202 26.2983 42.8795C26.3299 42.9218 26.388 43.0077 26.4723 43.131C31.3467 50.2497 37.4234 55.5253 43.5835 57.9862C49.5139 60.3551 52.3222 60.6289 53.9187 60.6289C53.919 60.6289 53.919 60.6289 53.919 60.6289C54.5899 60.6289 55.1269 60.5763 55.6006 60.5296L55.9012 60.501C57.9499 60.3193 62.4521 57.9864 63.4762 55.1405C64.2829 52.899 64.4956 50.4499 63.9589 49.5611C63.5913 48.9567 62.9577 48.6526 62.1556 48.2675Z" fill="white"/>
<path d="M42.7458 0C19.996 0 1.48764 18.3693 1.48764 40.9481C1.48764 48.2509 3.442 55.3994 7.14427 61.6557L0.057999 82.5589C-0.074001 82.9486 0.0241808 83.3795 0.312454 83.673C0.520544 83.8855 0.802817 84 1.09109 84C1.20154 84 1.31282 83.9834 1.42136 83.9487L23.2177 77.0225C29.1823 80.2094 35.9235 81.8916 42.7461 81.8916C65.4937 81.8918 84.0002 63.5245 84.0002 40.9481C84.0002 18.3693 65.4937 0 42.7458 0ZM42.7458 73.362C36.3261 73.362 30.1082 71.5083 24.7633 68.001C24.5835 67.8829 24.3749 67.8224 24.1649 67.8224C24.0539 67.8224 23.9426 67.8393 23.8344 67.8736L12.9157 71.3444L16.4405 60.9455C16.5545 60.609 16.4975 60.2378 16.2875 59.9509C12.2173 54.3895 10.0657 47.8186 10.0657 40.9481C10.0657 23.0727 24.7259 8.52982 42.7455 8.52982C60.763 8.52982 75.4215 23.0727 75.4215 40.9481C75.4218 58.8213 60.7635 73.362 42.7458 73.362Z" fill="white"/>
</svg>
